<?xml version="1.0" encoding="utf-8"?>
<svg xmlns="http://www.w3.org/2000/svg" xmlns:xlink="http://www.w3.org/1999/xlink" version= "1.1" width="1255px" height="1256px" viewBox="419 897 1255 1256">
<g id="layer1">
<g style="fill:rgb(0,0,0); fill-opacity:1.0; stroke-linejoin: miter">
<path d="M1607.7982,1528.3124L1607.0651,1530.215Q1595.5321,1614.9548,1582.1085,1678.0671Q1563.7466,1747.3744,1537.473,1795.6532Q1501.0183,1875.1096,1391.334,1968.832Q1278.4034,2050.2417,1181.1709,2070.9683Q1043.4404,2103.677,915.09406,2072.3147Q751.15045,2027.7903,660.9266,1935.884Q545.10297,1818.7194,513.9918,1710.9451Q470.21393,1605.0295,487.6236,1441.5986Q508.0896,1299.5754,600.28796,1177.988Q734.3358,1021.0529,894.08356,980.95514Q967.3348,959.7496,1056.4008,960.94305Q1127.6904,964.5436,1136.907,968.24567Q1205.2126,980.2604,1242.2048,996.61774Q1408.1333,1063.5594,1494.8341,1184.9927Q1535.587,1238.8628,1561.5592,1306.3462Q1583.9059,1352.5049,1605.2917,1500.1934Q1608.5664,1519.7178,1636.1815,1551.4272L1636.1815,1496.9451Q1661.5134,1525.342,1663.0557,1508.2712Q1667.0729,1467.0106,1662.8069,1433.6499Q1652.37,1346.8462,1585.1997,1222.9098Q1496.2244,1071.8322,1353.6616,990.415Q1219.0203,907.3406,1022.6699,909.2996Q957.7398,912.9333,942.1281,917.46716Q878.62256,928.6063,829.79224,948.0183Q726.59106,990.5502,683.271,1027.1808Q541.15955,1132.3533,475.97556,1291.6132Q446.90823,1364.3011,438.30563,1428.6084Q427.8034,1521.3544,431.1378,1541.8904Q437.49704,1696.5481,503.9966,1815.4563Q638.6666,2055.7031,902.0143,2122.6743Q1038.6919,2158.2168,1197.4104,2121.0579Q1338.2087,2082.5369,1435.3584,2001.4863Q1484.7467,1964.644,1542.9634,1889.083Q1582.2968,1835.2565,1607.7211,1783.237Q1619.0833,1763.3647,1639.8706,1705.886Q1673.6536,1595.62,1664.9966,1552.2793Q1666.9681,1548.7893,1655.4792,1540.8566L1607.7982,1528.3124"/>
</g>
<g style="fill:rgb(0,0,0); fill-opacity:1.0; stroke-linejoin: miter">
<path d="M507.25708,1329.8788L511.562,1339.7917Q516.73694,1352.9429,565.3394,1435.2062Q726.6902,1699.3583,722.23914,1694.5339L873.2189,1961.8496Q901.89935,2009.9839,919.84094,2035.6914Q937.7826,2061.3992,945.8992,2068.5059Q954.09863,2074.093,954.36847,2070.0017Q959.90753,2065.4866,961.1731,2023.4592Q964.36694,2025.6112,966.0796,2021.5726Q968.0077,2017.6388,958.03986,1994.2424Q947.4927,1970.0032,916.0897,1915.9817Q900.62445,1887.7114,760.5547,1655.6782L634.962,1434.7034Q607.98785,1387.7057,598.7517,1375.7728L586.0906,1360.5762Q573.9342,1348.1307,563.65607,1343.3926Q553.3779,1338.6544,544.83716,1338.3259L516.9194,1338.1641Q511.4308,1336.7628,507.25708,1329.8788"/>
</g>
<g style="fill:rgb(0,0,0); fill-opacity:1.0; stroke-linejoin: miter">
<path d="M-1043.0304,524.3772L-1042.2294,524.37836L-1028.6086,537.9994L-1025.4794,540.05664L-1022.87036,539.70197L-1020.73425,537.3609L-1019.0238,533.45917L-1017.6917,528.4224Q-1016.5488,522.8182,-1015.9734,516.64636Q-1014.92114,503.98352,-1014.98816,497.1378L-987.7471,524.3786L-986.94604,524.37744L-1043.0304,524.3772"/>
</g>
<g style="fill:rgb(0,0,0); fill-opacity:1.0; stroke-linejoin: miter">
<path d="M754.80774,1728.5479L755.4709,1728.4495Q767.79144,1725.3733,789.2123,1715.1224Q885.61975,1664.0756,904.338,1657.261Q926.28174,1647.1276,962.55884,1637.7344Q1024.4001,1622.5253,1075.3022,1647.472Q1121.8728,1669.9209,1172.561,1739.8549Q1208.1301,1791.6163,1230.6018,1833.3401L1319.3011,2006.1412Q1325.1042,2016.9419,1345.1826,2045.3145Q1345.9972,2046.4673,1349.9657,2045.528Q1383.1735,2033.8262,1395.0021,2022.3649Q1385.8768,1981.8607,1334.2378,1891.013Q1200.505,1653.1587,1097.2238,1599.5369Q1055.3098,1576.1213,998.8382,1575.4945Q935.2691,1576.0615,865.5201,1603.9872Q778.959,1638.1035,732.40216,1675.3618Q730.43,1674.2216,734.02496,1685.3368L754.80774,1728.5479"/>
</g>
<g style="fill:rgb(0,0,0); fill-opacity:1.0; stroke-linejoin: miter">
<path d="M1294.1747,983.3889L1293.0454,983.905Q1205.7407,1048.7329,1086.0356,1198.833Q1026.4531,1280.4,1046.1075,1316.8048Q1064.038,1351.3579,1104.8231,1357.185Q1120.6046,1364.9575,1282.4065,1364.8201Q1328.3773,1367.8646,1331.7262,1373.9805Q1332.4474,1373.9185,1331.3474,1371.93Q1328.9208,1367.4712,1328.3285,1367.9119Q1330.5531,1364.9106,1326.0115,1376.4768Q1320.3368,1387.899,1308.1816,1404.2924L1234.4318,1497.5657Q1215.2926,1523.6788,1203.9762,1550.4617Q1181.3513,1611.5718,1229.4408,1648.4785Q1259.7244,1676.4027,1377.3153,1700.5564Q1542.7694,1730.6356,1604.9519,1722.0093Q1613.1628,1708.5623,1611.1931,1667.5583Q1565.1213,1657.1516,1556.2402,1656.7852Q1395.9103,1644.4845,1348.8398,1635.0745Q1266.6445,1619.0051,1251.5135,1596.6145Q1241.0906,1587.3461,1264.3257,1546.4562Q1280.54,1519.383,1349.793,1434.187Q1363.9174,1416.0529,1373.504,1394.9698Q1388.1008,1355.0922,1362.7649,1333.803Q1342.4556,1318.7661,1309.2124,1315.5146L1274.3523,1313.109L1153.5668,1310.5344Q1131.8501,1309.408,1113.6594,1305.3447Q1094.9937,1300.062,1095.2291,1298.3888Q1097.2407,1300.9651,1094.1306,1295.1118Q1095.0338,1298.4766,1095.4749,1289.808Q1099.0735,1277.7349,1110.4923,1259.9662Q1128.2875,1233.9447,1146.2605,1214.5168Q1182.5349,1172.9448,1299.75,1063.6353Q1317.7228,1045.3608,1325.6351,1033.6849L1326.5084,1030.6843Q1326.3658,1027.0964,1323.4487,1022.044L1294.1747,983.3889"/>
</g>
<g style="fill:rgb(0,0,0); fill-opacity:1.0; stroke-linejoin: miter">
<path d="M1696.6666,2101.4282L1696.6685,2101.4282Q1696.6278,2101.4287,1697.4175,2101.429L1697.4677,2101.4294L1698.5396,2101.4294L1701.5033,2101.4297L1705.9805,2101.4297L1711.5927,2101.4297Q1717.7723,2101.4297,1724.7087,2101.4297Q1731.6451,2101.4297,1737.8248,2101.4297L1743.4369,2101.4297L1747.9141,2101.4297L1750.8778,2101.4294L1751.9498,2101.4294Q1751.9655,2101.4292,1752.1189,2101.429Q1752.1978,2101.429,1752.5194,2101.429Q1752.5688,2101.429,1752.6718,2101.4287L1752.7513,2101.4282L1696.6666,2101.4282"/>
</g>
<g style="fill:rgb(255,123,123); fill-opacity:1.0; stroke-linejoin: miter">
<path d="M1324.2131,1034.874C1323.9393,1034.874,1323.6823,1035.006,1323.5227,1035.2286Q1315.5388,1046.37,1299.1444,1063.0397L1299.1432,1063.0397Q1181.9196,1172.3582,1145.6205,1213.9584L1145.62,1213.9584Q1127.6129,1233.4261,1109.7911,1259.4867L1109.7777,1259.507Q1098.294,1277.3767,1094.6609,1289.5653C1094.6415,1289.6302,1094.63,1289.6971,1094.6266,1289.7648Q1094.3821,1294.573,1094.0514,1295.4263L1094.0404,1295.4263C1093.8546,1295.5967,1093.7471,1295.8473,1093.7672,1296.116C1093.781,1296.2993,1093.8522,1296.4655,1093.9625,1296.5973L1093.9517,1296.5973Q1094.3281,1297.323,1094.5896,1297.8539L1094.5787,1297.8539C1094.4705,1297.9819,1094.399,1298.143,1094.382,1298.3213Q1094.3397,1298.7638,1094.6232,1299.177L1094.6233,1299.1771Q1096.0397,1301.2408,1113.4281,1306.162L1113.4742,1306.1737Q1131.7346,1310.2526,1153.5228,1311.3827L1153.5487,1311.3837L1274.3142,1313.9578L1309.1539,1316.362L1309.151,1316.362Q1342.1455,1319.5934,1362.2595,1334.4856L1362.257,1334.4856Q1387.0874,1355.3898,1372.7064,1394.6779L1372.7037,1394.6779Q1363.1658,1415.6356,1349.1229,1433.665L1349.1227,1433.665Q1279.8414,1518.8965,1263.597,1546.0198L1263.5872,1546.0365Q1240.0637,1587.4337,1250.9016,1597.2068L1250.8892,1597.2068Q1266.3496,1619.813,1348.6769,1635.9081L1348.677,1635.9081Q1395.8007,1645.328,1556.1753,1657.6321L1556.2052,1657.6338Q1562.1641,1657.8796,1585.2681,1662.743C1585.326,1662.7552,1585.3848,1662.7612,1585.443,1662.7612C1585.6361,1662.7612,1585.8254,1662.6953,1585.9781,1662.5714C1586.1333,1662.4456,1586.2377,1662.2704,1586.276,1662.0778L1586.2759,1662.0778Q1597.8026,1604.5406,1607.8845,1530.4923L1607.8685,1530.4923L1608.3174,1529.3273L1620.2651,1532.4716C1620.3364,1532.4904,1620.409,1532.4995,1620.4812,1532.4995C1620.6669,1532.4995,1620.8496,1532.4386,1620.9999,1532.3229C1621.2085,1532.1621,1621.3307,1531.9136,1621.3307,1531.6501L1621.3307,1531.6492C1621.3307,1531.4739,1621.2765,1531.3029,1621.1754,1531.1595Q1608.2904,1512.8942,1606.1326,1500.0717L1606.1323,1500.0717Q1584.7426,1352.3568,1562.3552,1306.0411L1562.3519,1306.0411Q1536.3413,1238.4578,1495.5258,1184.4991L1495.5254,1184.4991Q1431.5833,1094.9419,1324.6418,1034.9825C1324.5149,1034.9114,1324.372,1034.874,1324.2264,1034.874 Z"/>
</g>
<g style="fill:rgb(255,123,123); fill-opacity:1.0; stroke-linejoin: miter">
<path d="M1046.9543,960.0301Q963.3113,960.0301,893.84735,980.1393L893.8449,980.1393Q733.8527,1020.31067,599.6421,1177.4364L599.61115,1177.4749Q542.3425,1252.9983,512.7086,1336.4043C512.6162,1336.6643,512.6559,1336.9531,512.81506,1337.1786C512.90045,1337.2996,513.01447,1337.3942,513.1444,1337.4559L513.1393,1337.4559Q514.85095,1338.5126,516.7093,1338.987C516.7763,1339.0042,516.8452,1339.0131,516.9144,1339.0134L544.8246,1339.1753L544.81915,1339.1753Q553.18494,1339.5007,563.3005,1344.164Q573.4362,1348.8364,585.483,1361.1697L585.4795,1361.1697L598.0991,1376.3165L598.09845,1376.3165Q607.30707,1388.2261,634.2253,1435.1262L634.22534,1435.1262L759.7045,1655.9023C759.85815,1656.1726,760.14294,1656.3322,760.4429,1656.3322C760.51495,1656.3322,760.5878,1656.3229,760.66003,1656.3038C760.7467,1656.2809,760.82733,1656.2451,760.89996,1656.1987L760.89825,1656.1987Q802.7052,1629.6573,865.83154,1604.7773L865.8358,1604.7758Q935.4284,1576.9127,998.8308,1576.344L998.8408,1576.344Q1055.0889,1576.9707,1096.8094,1600.2783L1096.8324,1600.2906Q1199.8888,1653.7958,1333.4974,1891.4292L1333.4994,1891.4326Q1362.6421,1942.703,1378.2289,1977.9158C1378.3671,1978.2279,1378.6748,1978.4215,1379.0052,1978.4215C1379.0635,1978.4215,1379.1224,1978.4155,1379.1813,1978.4031C1379.296,1978.3788,1379.4012,1978.332,1379.4928,1978.268L1379.4912,1978.268Q1385.6349,1973.9874,1391.8307,1969.521L1391.8857,1969.4778Q1501.6766,1875.6643,1538.2212,1796.0592L1538.2191,1796.0592Q1555.3087,1764.6564,1569.0533,1724.3882L1569.0377,1724.3882C1569.1334,1724.2465,1569.1873,1724.0746,1569.1825,1723.8911C1569.1705,1723.434,1568.7988,1723.0684,1568.3416,1723.064Q1502.3662,1722.4261,1377.4874,1699.7244L1377.4862,1699.7244Q1260.1265,1675.6182,1230.0166,1647.8541L1229.9579,1647.8047Q1182.3794,1611.29,1204.7595,1550.7922L1204.7585,1550.7922Q1216.0309,1524.1136,1235.0986,1498.0925L1235.098,1498.0925L1308.8479,1404.8192L1308.8639,1404.7982Q1321.064,1388.3444,1326.7721,1376.8547L1326.8021,1376.7872Q1327.9641,1373.8281,1328.687,1371.8134L1328.6737,1371.8134C1328.7391,1371.7148,1328.7847,1371.6014,1328.8044,1371.4788C1328.867,1371.0901,1328.654,1370.7095,1328.2903,1370.5591Q1318.0603,1366.3301,1282.4626,1363.9725L1282.4058,1363.9707Q1279.5941,1363.9731,1276.8273,1363.9731Q1120.5281,1363.9731,1105.1984,1356.4231C1105.118,1356.3835,1105.032,1356.3569,1104.9432,1356.3442Q1064.5906,1350.5789,1046.8615,1316.4136L1046.855,1316.4012Q1027.4586,1280.4745,1086.7007,1199.3625L1086.6997,1199.3625Q1187.5868,1072.8585,1265.4247,1006.9759L1265.412,1006.9759C1265.6306,1006.85345,1265.7902,1006.6369,1265.8344,1006.37756C1265.8998,1005.99384,1265.696,1005.6147,1265.3398,1005.4576Q1254.1377,1000.51654,1242.5497,995.84094L1242.5483,995.84094Q1205.4902,979.4544,1137.1599,967.42773L1137.1484,967.42773Q1127.5918,963.6881,1056.4436,960.0947L1056.4121,960.09375Q1051.6619,960.0301,1046.9543,960.0301 Z"/>
</g>
<g style="fill:rgb(255,123,123); fill-opacity:1.0; stroke-linejoin: miter">
<path d="M512.0251,1340.0698C511.66306,1340.0698,511.34082,1340.2992,511.2224,1340.6414Q494.24365,1389.7039,486.7829,1441.4775L486.779,1441.5087Q469.34644,1605.1544,513.20685,1711.2695L513.2015,1711.2695Q544.39465,1819.211,660.3225,1936.4812L660.3226,1936.4812Q750.7075,2028.5499,914.87146,2073.1343L914.89246,2073.14Q977.816,2088.5156,1042.9917,2088.5156Q1110.9492,2088.5156,1181.3486,2071.799L1181.348,2071.799Q1248.779,2057.4253,1323.7155,2013.9413L1323.7023,2013.9413C1323.8998,2013.8682,1324.066,2013.723,1324.1642,2013.5303C1324.2991,2013.2655,1324.2858,2012.9495,1324.129,2012.6969Q1321.5891,2008.6034,1320.0569,2005.7534L1320.0568,2005.7534L1231.3574,1832.9523L1231.3496,1832.9374Q1208.8557,1791.1724,1173.2611,1739.3738L1173.2488,1739.3564Q1122.4375,1669.2527,1075.676,1646.7094Q1043.8763,1631.1245,1007.8346,1631.1245Q985.87823,1631.1245,962.35596,1636.9095L962.34595,1636.9121Q925.99506,1646.3245,903.98193,1656.4899L903.9735,1656.4899Q885.6246,1663.2003,794.26697,1711.4884C793.9219,1711.6708,793.7455,1712.065,793.8395,1712.4438C793.87317,1712.5796,793.93835,1712.7008,794.0262,1712.8005L794.01825,1712.8005Q901.89105,1891.7965,915.34454,1916.3893L915.3554,1916.4086Q946.73346,1970.3872,957.261,1994.5813Q967.07367,2017.6146,965.3169,2021.1989L965.2976,2021.241Q964.39984,2023.3579,963.2146,2023.3579Q962.5429,2023.3579,961.6477,2022.7548C961.50494,2022.6586,961.33936,2022.6099,961.1731,2022.6099C961.0405,2022.6099,960.9076,2022.6409,960.78546,2022.7035C960.5102,2022.8447,960.33344,2023.1245,960.3241,2023.4337Q959.0702,2065.0732,953.8318,2069.3433C953.64905,2069.4922,953.53644,2069.7104,953.52094,2069.9458Q953.45917,2070.8818,952.7233,2070.8818Q950.9117,2070.8818,946.46277,2067.862L946.45325,2067.862Q938.41376,2060.8193,920.5375,2035.2053Q902.6168,2009.5277,873.95874,1961.4319L873.95844,1961.4319L723.21265,1694.5315L723.20544,1694.5315Q723.1953,1694.3973,723.14557,1694.2489Q721.42755,1689.1132,566.07086,1434.7742L566.0707,1434.7742Q519.3856,1355.7563,512.8096,1340.5814C512.6749,1340.2708,512.3687,1340.0698,512.0302,1340.0698 Z"/>
</g>
</g>
</svg>