<?xml version="1.0" encoding="utf-8"?>
<svg xmlns="http://www.w3.org/2000/svg" xmlns:xlink="http://www.w3.org/1999/xlink" version= "1.1" width="60px" height="60px" viewBox="510 1098 60 60">
<g id="layer1">
<g style="fill:rgb(255,127,245); fill-opacity:1.0; stroke-linejoin: miter">
<path d="M545.039,1107.4385L544.6349,1107.4393Q533.893,1107.5386,524.8251,1109.5438Q522.52936,1110.0355,521.92523,1110.5026Q521.5789,1110.7518,521.45685,1111.0088L521.19885,1112.3732Q521.08795,1112.5474,520.76025,1112.6588Q533.1589,1108.7732,547.8632,1109.1776Q558.9176,1109.675,561.7395,1113.9149Q564.8851,1117.9491,563.52075,1124.8116Q562.5031,1130.0865,560.0635,1137.0953Q558.7856,1140.6602,557.8779,1142.8446L553.39264,1153.3777Q552.72235,1155.5177,553.72473,1155.7665Q554.1898,1155.7699,554.666,1155.0082Q555.9021,1152.5808,557.4481,1148.9624Q560.97723,1140.1002,562.7207,1134.5698Q564.264,1129.8451,565.34186,1124.0951Q565.8572,1120.6316,565.3964,1118.3674Q564.0946,1112.2434,559.47253,1109.9425Q554.77234,1107.3925,545.039,1107.4385"/>
</g>
<g style="fill:rgb(255,127,245); fill-opacity:1.0; stroke-linejoin: miter">
<path d="M518.1156,1113.1345L518.0739,1113.7141Q517.9637,1131.9537,523.09357,1136.2673Q525.8698,1138.9806,530.2538,1139.1755Q533.0508,1139.3496,538.40625,1139.0126Q540.66235,1138.8712,548.4005,1137.8182Q548.9149,1137.7618,549.13745,1137.8192Q549.88196,1138.384,551.1439,1141.3551Q551.3413,1141.5947,554.0327,1149.532Q554.5292,1150.9111,554.6323,1151.0336Q555.02563,1151.7882,555.7091,1151.9485Q556.42035,1152.0142,556.5316,1151.2144Q555.7768,1147.2543,552.9809,1141.0209Q551.2672,1137.004,549.78564,1136.239Q549.2814,1135.991,548.2298,1136.0981Q539.8627,1137.2844,538.2279,1137.3397Q533.61285,1137.6437,530.8357,1137.5405Q526.5559,1137.4065,524.35425,1135.1465Q522.37317,1133.283,521.3664,1129.8014Q520.75366,1127.6764,520.4057,1124.719Q520.1734,1123.2483,519.8149,1115.629Q519.6832,1115.0662,519.47516,1114.7979Q519.5817,1114.7051,518.4041,1114.0635L518.2542,1113.865Q518.1261,1113.6344,518.1156,1113.1345"/>
</g>
<g style="fill:rgb(255,127,245); fill-opacity:1.0; stroke-linejoin: miter">
<path d="M535.1532,1120.538L535.15326,1120.538L535.1534,1120.538Q535.15344,1120.538,535.1535,1120.538L535.1536,1120.538L535.1537,1120.538L535.1542,1120.538L535.15216,1120.5381Q535.1522,1120.538,535.15234,1120.538L535.1524,1120.538L535.1525,1120.538L535.1526,1120.538L535.15265,1120.538L535.1528,1120.538L535.15283,1120.538Q535.15295,1120.538,535.153,1120.538Q535.1531,1120.538,535.1532,1120.538 M533.98047,1122.5237L533.99084,1122.5245Q534.7329,1122.6025,535.25916,1122.7662Q536.17004,1123.0464,536.677,1123.3296Q537.55396,1123.834,537.8308,1124.6626Q538.15454,1125.5974,537.5461,1126.2206Q537.2363,1126.5437,536.5605,1126.7784Q536.0711,1126.9497,535.5214,1126.8999Q534.7315,1126.8284,534.0205,1126.313Q533.472,1125.9335,533.21814,1125.2697Q533.03973,1124.5079,533.2394,1123.7593Q533.41315,1123.0671,533.98047,1122.5237 M534.1254,1120.225L534.1023,1120.2251Q532.7448,1120.2634,531.68304,1121.8906Q530.8003,1123.4241,531.08704,1125.1102Q531.3288,1126.615,532.50836,1127.5857Q533.8496,1128.6608,535.58325,1128.7058Q536.24365,1128.7418,537.5669,1128.3071Q538.43964,1127.9532,538.9344,1127.4419Q540.1326,1126.1302,539.8401,1124.4993Q539.53735,1122.804,538.1434,1121.7227Q537.4371,1121.1882,536.49274,1120.842Q535.8587,1120.6011,535.1116,1120.5016Q534.86304,1120.3424,534.6143,1120.287Q534.2878,1120.2157,534.1254,1120.225"/>
</g>
<g style="fill:rgb(255,127,245); fill-opacity:1.0; stroke-linejoin: miter">
<path d="M547.2055,1120.2699L547.2056,1120.2699Q547.20575,1120.2699,547.2059,1120.2699L547.206,1120.2699L547.2062,1120.2699L547.2063,1120.2699L547.2064,1120.2699L547.20654,1120.27L547.20667,1120.27L547.2068,1120.27Q547.2069,1120.27,547.20703,1120.27Q547.2055,1120.27,547.204,1120.27Q547.2041,1120.27,547.2042,1120.27L547.20435,1120.27L547.20447,1120.27L547.2046,1120.2699L547.2048,1120.2699L547.2049,1120.2699L547.205,1120.2699L547.20514,1120.2699L547.20526,1120.2699Q547.2054,1120.2699,547.2055,1120.2699 M546.99713,1120.7438L547.02856,1120.7527Q548.1337,1121.091,548.9996,1121.9717Q549.7101,1122.878,549.68384,1123.7979Q549.7129,1124.1478,549.44525,1124.5907Q549.1228,1125.1405,548.70953,1125.4373Q547.9673,1125.9441,546.9769,1125.731Q546.4695,1125.6001,546.1269,1125.1267Q545.9089,1124.822,545.7943,1124.5062Q545.73254,1124.3678,545.72955,1124.0002Q545.7274,1123.4415,546.0301,1122.6779Q546.1504,1122.3796,546.2703,1122.1263L546.5153,1122.0083Q546.5513,1121.977,546.59216,1121.8965Q546.6108,1121.8766,546.72186,1121.5782L546.99713,1120.7438 M547.196,1118.8302L547.1499,1118.8304L546.7076,1118.8518Q546.6606,1118.8568,546.62305,1118.9098Q546.43933,1119.284,546.4618,1120.0432Q545.1534,1119.9633,544.4548,1120.9498Q543.6165,1122.232,543.59576,1123.8711Q543.60803,1124.6665,543.9333,1125.3704Q544.1708,1125.951,544.7588,1126.5901Q545.80365,1127.6512,547.3631,1127.6561Q548.2483,1127.653,549.13965,1127.2839Q549.8797,1126.9677,550.46326,1126.3794Q551.75305,1125.0042,551.70703,1123.355Q551.62317,1121.5363,550.2946,1120.175Q548.86554,1118.8005,547.196,1118.8302"/>
</g>
</g>
</svg>