<?xml version="1.0" encoding="utf-8"?>
<svg xmlns="http://www.w3.org/2000/svg" xmlns:xlink="http://www.w3.org/1999/xlink" version= "1.1" width="60px" height="60px" viewBox="510 1098 60 60">
<g id="layer1">
<g style="fill:rgb(255,127,245); fill-opacity:1.0; stroke-linejoin: miter">
<path d="M549.30237,1107.2665L549.6131,1107.2736Q553.2098,1107.3322,555.2266,1112.0204Q556.97614,1116.6913,555.9441,1122.6584Q554.1353,1135.6927,543.0033,1147.2279Q533.04144,1144.7957,525.8945,1136.817Q520.65686,1131.0549,521.4429,1122.2251Q522.43823,1117.0916,526.224,1116.9795Q527.7639,1117.18,528.4015,1117.6173Q529.0973,1118.0287,529.9338,1118.6309Q534.42834,1122.0259,534.6885,1122.0936Q536.48615,1123.1993,536.83307,1123.0071Q537.2359,1122.7249,537.38165,1122.2175Q538.6255,1116.1548,539.14026,1115.4161Q539.85077,1113.4729,541.54236,1111.3232Q543.17804,1109.232,544.6839,1108.4811Q546.78827,1107.361,549.30237,1107.2665 M549.2706,1105.6234L549.00134,1105.6277Q547.0595,1105.611,543.90454,1106.997Q542.37476,1107.7543,540.6776,1109.7516Q537.198,1113.3766,535.9243,1121.1771Q531.75555,1117.7296,529.3467,1116.2297Q527.5232,1115.3141,526.0434,1115.3069Q521.51337,1115.5068,519.9392,1121.1256Q518.57697,1130.1719,523.6775,1136.8164Q529.6304,1144.5754,541.2444,1149.0789L538.44385,1151.9966L537.925,1152.657Q537.1023,1154.3239,538.19464,1154.4265Q542.2582,1152.2244,550.9128,1140.1865Q555.43896,1133.563,557.11334,1125.5671Q559.0329,1116.4692,556.75696,1111.3573Q554.055,1105.453,549.2706,1105.6234"/>
</g>
</g>
</svg>