<?xml version="1.0" encoding="UTF-8" standalone="no"?>
<svg
   xmlns:dc="http://purl.org/dc/elements/1.1/"
   xmlns:cc="http://creativecommons.org/ns#"
   xmlns:rdf="http://www.w3.org/1999/02/22-rdf-syntax-ns#"
   xmlns:svg="http://www.w3.org/2000/svg"
   xmlns="http://www.w3.org/2000/svg"
   xmlns:sodipodi="http://sodipodi.sourceforge.net/DTD/sodipodi-0.dtd"
   xmlns:inkscape="http://www.inkscape.org/namespaces/inkscape"
   version="1.1"
   width="60px"
   height="60px"
   viewBox="510 1098 60 60"
   id="svg45"
   sodipodi:docname="next.svg"
   inkscape:version="0.92.5 (2060ec1f9f, 2020-04-08)">
  <metadata
     id="metadata51">
    <rdf:RDF>
      <cc:Work
         rdf:about="">
        <dc:format>image/svg+xml</dc:format>
        <dc:type
           rdf:resource="http://purl.org/dc/dcmitype/StillImage" />
      </cc:Work>
    </rdf:RDF>
  </metadata>
  <defs
     id="defs49" />
  <sodipodi:namedview
     pagecolor="#ffffff"
     bordercolor="#666666"
     borderopacity="1"
     objecttolerance="10"
     gridtolerance="10"
     guidetolerance="10"
     inkscape:pageopacity="0"
     inkscape:pageshadow="2"
     inkscape:window-width="830"
     inkscape:window-height="518"
     id="namedview47"
     showgrid="false"
     inkscape:zoom="3.9333333"
     inkscape:cx="30"
     inkscape:cy="30"
     inkscape:window-x="0"
     inkscape:window-y="0"
     inkscape:window-maximized="0"
     inkscape:current-layer="svg45" />
  <g
     id="layer1"
     style="fill:#ffffff;stroke:#ffffff">
    <g
       style="fill:#ffffff;fill-opacity:1;stroke-linejoin:miter;stroke:#ffffff"
       id="g42">
      <path
         d="M543.9531,1117.5664L543.95374,1117.5665Q543.9542,1117.5667,543.95496,1117.5668Q543.95557,1117.5669,543.9563,1117.5671L543.95715,1117.5673Q543.9597,1117.5679,543.96387,1117.5691L543.95844,1117.5687Q543.95544,1117.569,543.9546,1117.5691Q543.9534,1117.5691,543.95325,1117.5691Q543.9529,1117.5691,543.9526,1117.5691Q543.95215,1117.5691,543.9518,1117.569L543.9514,1117.5688Q543.9512,1117.5687,543.9509,1117.5686Q543.9502,1117.5684,543.95044,1117.5677Q543.95056,1117.5663,543.9531,1117.5664 M544.06824,1115.8945L544.0384,1115.8922Q543.1284,1115.8381,542.8627,1116.8112L543.88727,1119.9382Q544.1254,1120.7787,544.1755,1121.3746Q544.4073,1122.9857,543.3646,1123.1827Q542.2507,1123.5846,538.9103,1123.576Q536.2376,1123.5468,532.3736,1123.4285L522.8889,1123.0001Q521.2498,1122.939,520.91125,1122.9875Q520.47076,1122.9574,519.7804,1123.4059L519.1997,1124.4679Q518.78845,1124.8093,518.48755,1124.7253Q519.7575,1124.9183,521.87714,1124.9756L538.42883,1125.2985Q541.93475,1125.3433,543.55396,1124.9143Q547.3516,1123.9434,545.028,1118.0165L562.22186,1126.901Q561.971,1127.1874,561.53314,1127.5635Q555.3938,1132.548,547.91327,1139.0955L545.4768,1141.4164Q544.552,1142.4292,544.2607,1142.9783Q544.2885,1142.7018,544.6429,1141.8567Q547.0184,1136.6411,546.95233,1136.4551Q547.0387,1135.1213,545.8129,1134.4313Q544.50836,1133.6799,535.37366,1133.5789L530.0586,1133.5364Q529.28204,1133.5197,528.6978,1133.568Q527.5486,1133.7213,527.20386,1134.1562Q526.8593,1134.5912,527.2259,1134.964Q527.8184,1135.3385,528.1247,1135.3002Q543.4157,1135.2555,544.9981,1135.8945Q545.35614,1136.143,545.28784,1136.2959L543.0869,1141.1405Q542.6687,1142.1195,542.6074,1142.6415Q542.2312,1144.0789,543.5097,1144.3308Q544.51294,1144.1643,547.40295,1141.6892Q559.23114,1131.5026,562.62085,1128.834Q563.80206,1127.7775,563.9783,1127.1908Q563.6917,1125.8066,563.5088,1125.7941Q563.65796,1125.7849,561.75745,1124.6744Q557.54425,1122.7075,546.5157,1116.8499Q544.47754,1115.848,544.06824,1115.8945"
         id="path40"
         style="fill:#ffffff;stroke:#ffffff" />
    </g>
  </g>
</svg>
