<?xml version="1.0" encoding="utf-8"?>
<svg xmlns="http://www.w3.org/2000/svg" xmlns:xlink="http://www.w3.org/1999/xlink" version= "1.1" width="60px" height="60px" viewBox="510 1098 60 60">
<g id="layer1">
<g style="fill:rgb(255,127,245); fill-opacity:1.0; stroke-linejoin: miter">
<path d="M539.22577,1117.5663L539.22516,1117.5664Q539.2247,1117.5665,539.22394,1117.5667Q539.2233,1117.5668,539.2226,1117.567L539.22174,1117.5671Q539.2192,1117.5677,539.215,1117.569L539.22046,1117.5686Q539.22345,1117.5688,539.2243,1117.569Q539.22546,1117.569,539.22565,1117.569Q539.226,1117.569,539.2263,1117.569Q539.22675,1117.569,539.2271,1117.5688L539.2275,1117.5687Q539.2277,1117.5686,539.22797,1117.5685Q539.2287,1117.5682,539.22845,1117.5676Q539.22833,1117.5662,539.22577,1117.5663 M539.11066,1115.8944L539.1405,1115.8921Q540.0505,1115.838,540.3162,1116.811L539.2916,1119.9381Q539.05347,1120.7786,539.0034,1121.3745Q538.7716,1122.9856,539.8143,1123.1826Q540.9282,1123.5845,544.2686,1123.5759Q546.9413,1123.5466,550.8053,1123.4283L560.29,1123.0Q561.9291,1122.9388,562.26764,1122.9874Q562.7081,1122.9573,563.3985,1123.4058L563.9792,1124.4678Q564.39044,1124.8092,564.69135,1124.7252Q563.4214,1124.9182,561.30176,1124.9755L544.75006,1125.2983Q541.24414,1125.3431,539.62494,1124.9142Q535.8273,1123.9432,538.1509,1118.0164L520.95703,1126.9009Q521.2079,1127.1873,521.64575,1127.5634Q527.7851,1132.5479,535.2656,1139.0953L537.7021,1141.4163Q538.6269,1142.4291,538.9182,1142.9781Q538.8904,1142.7017,538.536,1141.8566Q536.1605,1136.641,536.22656,1136.455Q536.1402,1135.1212,537.36597,1134.4312Q538.67053,1133.6798,547.80524,1133.5787L553.1203,1133.5363Q553.89685,1133.5195,554.4811,1133.5679Q555.6303,1133.7212,555.97504,1134.1561Q556.3196,1134.5911,555.953,1134.9639Q555.3605,1135.3384,555.0542,1135.3Q539.7632,1135.2554,538.1808,1135.8944Q537.82275,1136.1428,537.89105,1136.2958L540.092,1141.1404Q540.5102,1142.1194,540.5715,1142.6414Q540.9477,1144.0787,539.6692,1144.3307Q538.66595,1144.1642,535.77594,1141.6891Q523.94775,1131.5024,520.55804,1128.8339Q519.37683,1127.7773,519.2006,1127.1907Q519.4872,1125.8065,519.6701,1125.794Q519.52094,1125.7848,521.42145,1124.6743Q525.63464,1122.7074,536.6632,1116.8497Q538.70135,1115.8479,539.11066,1115.8944"/>
</g>
</g>
</svg>