<?xml version="1.0" encoding="utf-8"?>
<svg xmlns="http://www.w3.org/2000/svg" xmlns:xlink="http://www.w3.org/1999/xlink" version= "1.1" width="60px" height="60px" viewBox="510 1098 60 60">
<g id="layer1">
<g style="fill:rgb(255,127,245); fill-opacity:1.0; stroke-linejoin: miter">
<path d="M550.8937,1106.6654L550.7775,1106.6727Q550.56305,1106.6824,549.4103,1107.0079Q549.1758,1107.0532,549.19464,1107.0269Q549.1827,1107.1229,549.1915,1107.2744Q549.32544,1108.6284,549.3113,1109.0829Q549.29205,1109.4663,549.11163,1109.862Q548.87866,1110.3922,548.3164,1110.9725Q548.06995,1111.2225,547.76733,1111.4791Q547.1343,1112.0194,546.80286,1112.2303L546.7468,1112.3057Q546.7126,1112.4077,546.7445,1112.5778L546.78766,1112.7554Q546.8447,1112.9451,546.93616,1113.1456Q547.25037,1113.8239,547.5028,1113.9095Q550.0505,1113.1088,551.1241,1110.7158Q551.60065,1109.6824,551.5201,1108.7189Q551.4847,1107.9436,551.2711,1107.2203Q551.15186,1106.8416,551.0617,1106.7148Q551.036,1106.6686,550.8937,1106.6654"/>
</g>
<g style="fill:rgb(255,127,245); fill-opacity:1.0; stroke-linejoin: miter">
<path d="M556.52295,1107.0458L556.50085,1107.0519Q555.729,1107.2887,555.4688,1108.3809Q555.20514,1109.5719,555.5542,1110.915Q555.8679,1112.0093,556.57074,1112.6387Q557.1328,1113.2042,558.3004,1113.5419Q558.3706,1113.5383,558.46295,1113.4257Q558.5073,1113.4055,558.74994,1112.9485Q559.06885,1112.2737,559.0816,1111.9581L559.05853,1111.9126Q558.84955,1111.7896,558.6446,1111.6307Q558.46576,1111.4846,558.263,1111.288Q557.9864,1111.0135,557.84296,1110.7407Q557.50806,1110.0718,557.52106,1108.5079Q557.5163,1108.4967,557.5053,1108.5071Q557.38007,1108.6519,557.26807,1108.713L557.13055,1108.7738L557.10443,1108.741Q557.0268,1108.5826,556.8761,1108.1409Q556.6379,1107.4442,556.5285,1107.0458L556.52295,1107.0458"/>
</g>
<g style="fill:rgb(255,127,245); fill-opacity:1.0; stroke-linejoin: miter">
<path d="M553.93256,1116.1832L553.8861,1116.1835Q552.61847,1116.219,551.61835,1116.7101Q550.429,1117.3074,549.66864,1118.2175Q549.1513,1118.8821,549.16,1119.2104L549.2388,1119.2883Q549.3483,1119.3723,549.5329,1119.4683Q549.7703,1119.5942,550.64294,1119.9839Q550.7621,1120.0438,550.77246,1120.0676Q552.3635,1118.581,553.38324,1118.3943Q553.8277,1118.308,554.6158,1118.4673Q555.4318,1118.645,556.7807,1119.0747L556.91626,1119.047Q557.0361,1118.9874,557.15967,1118.8447Q557.38043,1118.6317,557.6553,1117.9512Q557.7837,1117.5706,557.6602,1117.4802Q556.6374,1116.8021,555.8718,1116.538Q554.9413,1116.1965,553.93256,1116.1832"/>
</g>
<g style="fill:rgb(255,127,245); fill-opacity:1.0; stroke-linejoin: miter">
<path d="M521.8604,1119.4509L521.72864,1119.4745Q521.6653,1119.4613,521.29443,1119.761L520.5157,1120.5581Q520.4323,1120.6455,520.3469,1120.6436Q520.4977,1120.8773,521.2664,1121.4725Q521.68085,1121.8096,523.0897,1122.7297Q526.7913,1125.0712,530.507,1127.5208Q531.613,1128.2341,532.68176,1128.8741Q533.95105,1129.7338,534.8518,1129.6134Q535.0757,1129.5736,535.2285,1129.4708Q535.3542,1129.4451,535.5111,1129.0668Q535.5212,1128.6423,535.41595,1128.5441Q535.31696,1128.3622,535.121,1128.1906Q533.2068,1126.7861,531.7548,1125.8281L527.425,1123.0751L522.9281,1120.0244Q522.03186,1119.447,521.8604,1119.4509"/>
</g>
<g style="fill:rgb(255,127,245); fill-opacity:1.0; stroke-linejoin: miter">
<path d="M562.7958,1120.2059L562.5216,1120.3772Q561.9399,1120.7621,561.20105,1121.3525L556.8732,1124.9822Q556.9047,1124.9999,552.1891,1128.5895Q550.8212,1129.6903,550.33215,1130.1515Q549.98126,1130.4993,550.02386,1130.9161Q550.06647,1131.333,550.3301,1131.6389Q550.5937,1131.9448,550.9058,1131.9598Q550.9836,1132.0245,551.56635,1131.6279Q553.0086,1130.705,553.8264,1130.0427L561.1465,1124.0905Q561.8104,1123.546,562.23584,1123.1484L562.5955,1122.7819Q562.8761,1122.4338,562.9338,1122.1461Q562.9915,1121.8584,562.92,1121.6172L562.5848,1120.7687Q562.5355,1120.5786,562.6378,1120.3934L562.7958,1120.2059"/>
</g>
<g style="fill:rgb(255,127,245); fill-opacity:1.0; stroke-linejoin: miter">
<path d="M551.068,1145.5895L551.0684,1145.5895L551.0688,1145.5895L551.0695,1145.5895L551.07025,1145.5895L551.0706,1145.5895L551.0709,1145.5895Q551.0712,1145.5895,551.07153,1145.5896L551.07184,1145.5896L551.07214,1145.5896Q551.06757,1145.5896,551.0629,1145.5896L551.0634,1145.5896L551.0639,1145.5896L551.06433,1145.5896L551.0648,1145.5895L551.06525,1145.5895L551.0657,1145.5895Q551.0661,1145.5895,551.06647,1145.5895L551.06726,1145.5895Q551.0677,1145.5895,551.068,1145.5895 M551.07465,1145.5898L551.07526,1145.59Q551.0756,1145.59,551.0769,1145.5902Q551.0779,1145.5905,551.0786,1145.5907Q551.07916,1145.5908,551.08026,1145.5913Q551.0809,1145.5916,551.0813,1145.5918Q551.0819,1145.5922,551.082,1145.5925Q551.0805,1145.5925,551.07904,1145.5925Q551.07745,1145.5923,551.07495,1145.5916Q551.07245,1145.591,551.0691,1145.5898L551.07465,1145.5898 M532.24475,1141.2041L532.2026,1141.2046Q531.4568,1141.232,530.84735,1141.9232Q527.6056,1146.1832,527.0996,1147.4285Q526.7002,1148.2377,526.81006,1148.7985Q526.94556,1149.0054,528.51605,1148.5105L528.632,1148.8494L529.3978,1147.7683L532.37634,1143.1256Q532.95306,1143.3402,534.402,1144.4225Q535.1053,1144.9436,538.7284,1148.0784Q539.1541,1148.3724,539.499,1148.4067Q540.24854,1148.4661,541.3888,1147.3385Q542.6713,1146.0594,544.4805,1143.5881Q545.1889,1143.6307,550.0317,1147.2518Q550.4502,1147.5138,550.8727,1147.5494Q551.718,1147.5477,553.08264,1146.5535Q554.6614,1145.3257,555.3494,1144.2844Q555.5635,1143.8333,555.12714,1143.323Q555.07336,1143.2218,554.69806,1142.9293Q554.36835,1142.7219,554.2036,1142.7802Q553.8425,1143.0144,553.2118,1143.5537L551.69354,1144.9993Q551.3812,1145.2635,550.95966,1145.527Q546.4287,1142.5537,546.2934,1142.5446Q545.0909,1141.8284,544.277,1141.8976Q543.92303,1141.9353,543.249,1142.5441Q540.30316,1146.305,539.63983,1146.6594Q535.5035,1142.969,534.75885,1142.4622Q533.75726,1141.7078,533.24744,1141.4656Q532.76654,1141.2179,532.24475,1141.2041"/>
</g>
</g>
</svg>