<?xml version="1.0" encoding="UTF-8" standalone="no"?>
<svg
   xmlns:dc="http://purl.org/dc/elements/1.1/"
   xmlns:cc="http://creativecommons.org/ns#"
   xmlns:rdf="http://www.w3.org/1999/02/22-rdf-syntax-ns#"
   xmlns:svg="http://www.w3.org/2000/svg"
   xmlns="http://www.w3.org/2000/svg"
   xmlns:sodipodi="http://sodipodi.sourceforge.net/DTD/sodipodi-0.dtd"
   xmlns:inkscape="http://www.inkscape.org/namespaces/inkscape"
   version="1.1"
   width="60px"
   height="60px"
   viewBox="510 1098 60 60"
   id="svg7"
   sodipodi:docname="share.svg"
   inkscape:version="0.92.5 (2060ec1f9f, 2020-04-08)">
  <metadata
     id="metadata13">
    <rdf:RDF>
      <cc:Work
         rdf:about="">
        <dc:format>image/svg+xml</dc:format>
        <dc:type
           rdf:resource="http://purl.org/dc/dcmitype/StillImage" />
      </cc:Work>
    </rdf:RDF>
  </metadata>
  <defs
     id="defs11" />
  <sodipodi:namedview
     pagecolor="#ffffff"
     bordercolor="#666666"
     borderopacity="1"
     objecttolerance="10"
     gridtolerance="10"
     guidetolerance="10"
     inkscape:pageopacity="0"
     inkscape:pageshadow="2"
     inkscape:window-width="830"
     inkscape:window-height="518"
     id="namedview9"
     showgrid="false"
     inkscape:zoom="3.9333333"
     inkscape:cx="30"
     inkscape:cy="30"
     inkscape:window-x="0"
     inkscape:window-y="0"
     inkscape:window-maximized="0"
     inkscape:current-layer="svg7" />
  <g
     id="layer1"
     transform="matrix(0.88873007,0,0,0.9087789,59.616674,103.1195)"
     style="stroke-width:1.11272013">
    <g
       style="fill:#ff7ff5;fill-opacity:1;stroke-width:1.184039;stroke-linejoin:miter"
       id="g4">
      <path
         d="m 539.43616,1106.5797 0.13914,0.051 8.442,1.6259 q 4.23716,1.0217 13.8077,3.7126 0.0533,0.6408 -0.2583,1.9212 -4.4035,16.482 -4.25335,16.36 -1.10742,5.0724 -1.49945,8.351 -1.1973,-1.8653 -4.71356,-9.7378 -0.26379,-0.5931 -0.64224,-0.7441 -0.34586,-0.1893 -0.75125,-0.2057 -0.14795,-0.032 -1.94875,0.3523 -3.70085,0.8043 -7.1505,2.0648 -4.59045,1.7023 -7.99255,4.111 -2.25305,1.7676 -2.53821,4.4426 0.41306,7.6445 8.71759,10.7035 -6.25313,0.4163 -10.26257,-1.0314 -5.38606,-2.2631 -7.73406,-6.6578 -2.10884,-4.3815 -0.8849,-9.2892 1.3669,-5.395 7.3691,-9.468 2.6486,-1.67 6.0453,-3.0781 0.6736,-0.3383 10.96933,-3.4578 1.35047,-0.456 1.56617,-0.6992 0.1038,-0.078 0.2567,-0.9225 0.0967,0.4628 0.1341,0.068 -0.002,-0.5395 -0.287,-0.916 -5.8113,-6.5592 -6.53044,-7.5564 m -0.46956,-1.5998 -0.27715,0.017 q -1.80615,0.4781 -1.29725,1.5507 0.002,0.4923 6.9644,8.2543 l -11.705,3.7174 q -5.9077,2.4373 -9.104,5.3292 -6.96703,6.1227 -5.4743,15.4521 1.4886,6.8182 9.05414,10.5896 2.97506,1.3082 8.17023,1.6556 6.56238,0.3776 6.71193,-0.6787 3.6232,1.3146 6.1753,1.4861 0.50297,0.071 0.9265,-0.6503 0.2751,-0.74 -0.15693,-1.1057 -10.15147,-2.0249 -14.17591,-5.2903 -3.50982,-3.5803 -2.76159,-7.3258 0.29779,-2.0369 6.14283,-4.7694 4.5246,-2.1732 11.4419,-3.6229 3.38347,7.7378 4.899,10.0814 0.9084,1.5495 1.9197,0.6815 0.6335,-0.3958 0.9989,-1.6372 0.3065,-4.4486 5.8451,-24.7036 0.3445,-1.6642 0.2004,-2.2796 -0.17934,-0.9658 -1.1054,-1.3382 l -6.64334,-1.8632 q -7.92656,-2.4475 -16.74946,-3.5501"
         id="path2"
         inkscape:connector-curvature="0"
         style="stroke-width:1.11272013" />
    </g>
  </g>
</svg>
