<?xml version="1.0" encoding="utf-8"?>
<svg xmlns="http://www.w3.org/2000/svg" xmlns:xlink="http://www.w3.org/1999/xlink" version= "1.1" width="980px" height="200px" viewBox="50 1028 980 200">
<g id="layer1">
<g style="fill:rgb(153,153,153); fill-opacity:1.0; stroke-linejoin: miter">
<path d="M106.50843,1065.0209L105.83971,1065.0408Q103.060265,1065.159,100.80813,1066.4755Q99.832825,1067.7931,99.8559,1070.8335Q99.99239,1074.9443,100.430374,1080.9348Q103.795105,1119.8724,103.831345,1123.4497L104.95212,1133.5408Q105.406006,1145.7457,105.769684,1149.6772Q105.91169,1152.317,106.48945,1153.6367L106.71198,1155.8942Q106.58563,1156.0146,108.07846,1155.9319Q110.495316,1158.1941,112.46293,1158.4769Q114.23749,1158.6768,115.22455,1157.0934Q115.61149,1156.3665,115.5127,1155.8297Q114.98969,1149.9229,115.15814,1149.3004Q115.35434,1146.312,115.99461,1141.1254Q116.8051,1135.473,119.48907,1127.9891Q120.9357,1123.3596,128.41179,1120.7792Q137.64285,1117.7966,146.72728,1123.7753Q153.92418,1128.3596,155.6611,1138.9894Q156.7807,1142.4722,153.08432,1148.1625Q147.36255,1156.2151,142.4736,1158.8928Q137.78142,1160.7267,126.85418,1161.9591Q116.532005,1162.9706,110.91584,1160.2389Q109.91777,1160.3556,108.39225,1161.9985Q105.94759,1164.6818,105.13091,1166.8613Q104.6462,1167.6031,106.31406,1168.632Q112.30101,1173.8634,123.04384,1173.6743Q131.59616,1173.2837,140.99745,1170.4089Q147.60663,1168.6844,150.88455,1165.4689Q166.8241,1149.7308,164.67212,1138.1255Q161.77481,1118.4631,142.88144,1112.3207Q134.50107,1109.7448,126.23184,1112.3264Q116.9915,1115.3188,112.99193,1121.5977Q112.084335,1082.132,111.18063,1069.427Q110.79069,1067.6064,109.75302,1065.9465Q108.667564,1064.9857,106.50843,1065.0209"/>
</g>
<g style="fill:rgb(153,153,153); fill-opacity:1.0; stroke-linejoin: miter">
<path d="M198.83269,1119.861L198.96037,1119.8636Q200.0315,1119.642,204.54039,1124.7771Q205.34802,1125.7476,206.55771,1127.6903Q206.80074,1128.0166,209.12248,1132.3938Q209.96002,1133.781,209.97774,1133.6389Q210.98347,1134.4882,215.58173,1133.6604Q215.81348,1137.2717,215.16898,1140.3323Q212.96819,1149.7653,205.6433,1157.1602Q198.0321,1164.6663,190.49734,1164.6813Q177.4257,1163.9055,179.5273,1146.9562Q181.95534,1136.7285,187.98187,1128.0964Q193.17957,1120.7814,198.83269,1119.861 M199.22864,1109.199L198.6379,1109.2112Q189.96481,1109.4669,181.4207,1120.5308Q172.04964,1134.6508,170.52768,1147.4395Q169.58469,1159.7197,175.08891,1166.2753Q181.78181,1173.3905,190.8753,1173.314Q199.20996,1173.2551,207.31613,1167.1603Q216.09622,1160.2947,220.76976,1150.8967Q227.41168,1163.9644,237.78345,1168.2334Q244.49509,1170.8732,250.9065,1170.1653Q253.6719,1169.8922,255.76039,1169.3949Q256.97116,1168.9487,257.15704,1166.6512Q257.16263,1160.9943,255.91945,1159.9642Q246.32791,1159.1738,243.61899,1158.1202Q238.8287,1156.6226,235.57477,1153.4446Q232.08987,1149.984,229.21947,1144.738Q228.60742,1143.6713,227.40668,1140.9298Q224.4583,1132.9456,223.63431,1131.3301Q222.62512,1129.5347,219.69507,1129.984Q218.30194,1123.6086,213.90088,1118.054Q206.29535,1108.9142,199.22864,1109.199"/>
</g>
<g style="fill:rgb(153,153,153); fill-opacity:1.0; stroke-linejoin: miter">
<path d="M285.5631,1113.3284L285.14188,1113.334Q274.91446,1114.2909,270.48593,1123.5109Q267.64774,1128.9357,264.70197,1142.5809Q263.07803,1149.3315,263.95392,1155.5825Q264.8328,1163.6962,273.8239,1170.416Q282.163,1176.1057,293.88354,1176.1058Q304.26147,1175.778,311.87033,1172.8496Q314.8864,1171.6726,317.6242,1169.2645Q318.7402,1167.9277,318.37836,1166.0623Q317.1268,1161.4728,314.34528,1160.1228Q313.30334,1159.7805,313.51404,1161.3354Q313.51584,1165.1042,314.1656,1169.1722Q312.54327,1168.8303,311.92996,1166.7544Q310.96393,1163.524,311.5282,1161.4066Q295.77856,1165.5692,288.5811,1164.8257Q279.0096,1163.9084,274.12366,1157.123Q272.46606,1153.8518,273.62115,1147.7628Q277.7212,1132.3113,280.71835,1127.9772Q282.34167,1125.2345,285.496,1124.8411L288.53168,1127.3461Q288.97247,1127.7714,289.73053,1127.5125Q290.71207,1127.3845,296.63116,1123.0609Q297.13205,1122.6757,297.66208,1122.7625Q295.64224,1118.2885,291.7992,1115.2157Q288.851,1113.1426,285.5631,1113.3284"/>
</g>
<g style="fill:rgb(153,153,153); fill-opacity:1.0; stroke-linejoin: miter">
<path d="M334.66122,1079.785L334.51248,1079.7865Q330.66986,1079.9161,329.21887,1081.9363Q327.20813,1084.4443,327.16986,1088.9988Q327.13748,1093.0653,327.5008,1100.8783L328.27094,1116.5668Q328.39288,1118.888,328.75012,1123.484Q328.8608,1125.2787,328.9241,1127.5322Q329.00952,1130.1909,328.9918,1133.6134Q328.71835,1143.0548,328.78055,1144.9996Q328.86145,1152.0695,329.12277,1155.5978Q329.49664,1160.9921,330.0163,1163.8436Q330.39215,1165.7677,330.7698,1167.1466Q331.56702,1169.4323,331.86325,1171.0066L332.46872,1172.7999Q335.1077,1172.0966,341.2644,1169.8037Q341.15384,1169.5107,341.17648,1169.4452Q341.46277,1169.6007,341.5494,1167.4606Q341.56845,1165.9099,341.20038,1161.0785Q339.9412,1146.4243,339.78204,1143.1865Q339.67746,1142.0565,339.31696,1132.3293L338.6566,1123.5544Q338.4458,1119.9933,338.48932,1118.7938Q338.46423,1116.4861,338.75388,1096.2859Q338.78418,1092.8666,338.77274,1089.2594Q341.25577,1088.6389,341.3587,1088.937Q341.41473,1088.6627,341.35333,1087.6937Q340.89758,1083.7758,339.64407,1081.9987Q337.35507,1079.6703,334.66122,1079.785"/>
</g>
<g style="fill:rgb(153,153,153); fill-opacity:1.0; stroke-linejoin: miter">
<path d="M375.5989,1112.5923L375.48575,1112.5935Q372.97864,1112.5278,366.63922,1116.9504Q366.42795,1116.7797,339.14304,1136.8495Q335.85968,1139.4049,334.9576,1140.7479Q334.31003,1141.9298,335.1091,1143.6005Q337.66153,1148.0881,339.93158,1149.265Q343.43134,1149.8865,349.3149,1152.0988Q367.0896,1162.4961,390.45248,1172.8726Q399.63217,1176.4171,403.26535,1176.4541Q405.6746,1175.1709,406.83728,1169.7848Q407.1745,1167.4421,406.93787,1167.4839Q406.9233,1167.3108,405.2981,1166.2474Q403.69528,1165.257,402.79675,1164.9211L393.29996,1161.6984Q378.03098,1155.8578,375.1138,1154.5253L349.02155,1142.2684Q370.91705,1128.557,377.58154,1122.9849Q377.75168,1122.8529,377.61853,1122.7817Q374.37292,1121.5662,373.68674,1120.7057Q372.3075,1119.2411,372.4506,1118.0968Q380.00043,1119.3326,381.8643,1120.1619Q382.50632,1117.4049,380.161,1114.7234Q378.34134,1112.6665,375.5989,1112.5923"/>
</g>
<g style="fill:rgb(153,153,153); fill-opacity:1.0; stroke-linejoin: miter">
<path d="M438.46387,1125.8221L438.69565,1125.8245Q440.17023,1125.8167,443.38754,1126.618Q444.86285,1129.0886,446.7175,1134.3711Q447.13284,1135.695,447.59164,1139.9415Q446.61966,1142.1619,445.54187,1143.4866Q443.69772,1145.6582,440.27057,1148.6726Q434.891,1153.3728,431.34286,1154.0852Q426.4111,1153.5084,423.75772,1149.3342Q420.97934,1144.7684,422.22296,1139.4288Q422.76688,1137.0801,423.98807,1135.595Q426.1939,1132.5258,429.37405,1129.722Q433.7992,1125.861,438.46387,1125.8221 M444.87677,1182.0057L444.90863,1182.4996Q445.59244,1193.6655,446.91425,1207.1505Q437.77325,1203.5747,433.84167,1201.1033Q429.2356,1197.8271,428.8561,1195.27Q428.77768,1194.1576,429.87137,1192.5979Q431.2821,1190.5724,433.28705,1189.0138Q436.54025,1186.2517,444.87677,1182.0057 M440.14407,1115.3984L439.74573,1115.4015Q429.10547,1115.5768,420.83972,1124.7053Q411.72775,1134.2427,412.82773,1144.3877Q414.37085,1157.1754,425.91858,1161.9098Q434.425,1165.6632,445.82632,1155.5482Q445.37476,1160.2385,444.7446,1169.4686Q418.0789,1181.6757,419.57736,1196.5422Q420.13382,1208.9028,449.07385,1217.002Q454.8456,1216.784,455.8342,1210.4791Q456.00958,1208.7546,455.88904,1206.8252Q454.03128,1188.7378,453.44147,1177.7466L460.3635,1174.1389Q462.34488,1172.3296,462.28342,1169.9514Q462.07492,1166.1722,459.36328,1164.9244Q459.41788,1164.1384,453.75827,1166.1063Q454.64935,1153.1742,455.5321,1147.4657Q457.34995,1147.9768,457.46747,1148.1207Q458.6066,1145.8779,458.90143,1142.5894Q459.3279,1133.7092,456.9411,1128.6917Q454.1125,1121.5403,450.52762,1118.4172Q446.86713,1115.4069,440.14407,1115.3984"/>
</g>
<g style="fill:rgb(153,153,153); fill-opacity:1.0; stroke-linejoin: miter">
<path d="M562.88367,1124.1129L562.90466,1124.1187Q568.5679,1125.4261,574.27094,1127.5459Q578.1745,1129.0353,582.72296,1132.0383Q586.5438,1134.6676,588.35767,1137.0724Q589.7114,1139.5479,590.09375,1142.5845Q590.41064,1146.802,588.5851,1149.6461Q587.0086,1152.6459,581.6194,1156.446Q579.2898,1158.3809,574.7602,1158.9763Q571.27234,1159.4791,567.048,1158.3552Q560.7971,1156.676,560.1893,1151.821Q560.0215,1150.3391,560.1106,1148.4037Q560.1669,1147.4408,560.62274,1143.9097Q564.6333,1136.1552,565.26935,1129.8956Q565.7477,1125.5751,562.88367,1124.1129 M478.92477,1107.8347L478.7659,1107.8368Q474.4854,1108.2754,473.0706,1109.9761Q471.00443,1111.652,470.4326,1116.3999Q470.21622,1124.7911,474.4823,1132.3489Q474.59396,1134.1478,471.762,1157.3861Q471.95056,1161.6583,474.79797,1163.2142Q477.4302,1164.9205,480.61615,1162.9875Q481.03873,1162.4989,475.8067,1154.4056Q476.6297,1153.8026,478.29294,1154.515Q479.60605,1154.9418,481.96436,1157.552Q482.24017,1157.7529,482.42886,1157.4738Q484.24545,1152.7911,485.08734,1141.0004Q501.99225,1143.9062,509.76865,1140.0858Q510.5697,1159.3002,521.8647,1165.0734Q528.1039,1167.6864,537.2147,1165.0929Q545.4885,1162.4583,551.9974,1156.0422Q556.8739,1167.9147,573.09515,1168.1438Q580.7554,1168.3865,588.6669,1162.6168Q596.89636,1156.3097,598.9542,1148.8892Q602.84814,1131.2363,585.7869,1120.8076Q567.035,1109.7689,557.67975,1115.939Q556.18335,1116.4432,556.8338,1117.7242Q557.9433,1120.0587,561.08795,1123.4875Q556.24713,1122.4435,555.13574,1124.8888Q553.7897,1128.8616,551.99,1141.5707Q550.38995,1144.5656,548.7404,1146.8556Q538.52783,1158.5991,526.8956,1157.5746Q522.0434,1156.9673,519.4418,1147.7832Q518.7329,1145.0078,518.56805,1140.5258Q518.2655,1137.3956,519.6585,1128.5963Q519.51776,1127.3773,518.9662,1126.9243Q516.0386,1124.4851,512.13306,1125.2607Q509.93353,1129.202,508.29385,1130.5251Q506.79895,1131.9003,503.0391,1132.9596Q499.9365,1133.407,495.19882,1133.1981Q487.20892,1132.8256,486.90747,1132.2955Q486.0702,1131.8363,485.3441,1131.2437Q485.47687,1118.839,483.53836,1111.9713Q481.9175,1107.808,478.92477,1107.8347"/>
</g>
<g style="fill:rgb(153,153,153); fill-opacity:1.0; stroke-linejoin: miter">
<path d="M736.0364,1112.5804L735.9376,1112.582Q728.60394,1115.164,725.169,1121.421Q718.92975,1132.2865,712.029,1150.0055Q706.7348,1130.1272,701.32556,1121.5117Q697.70135,1114.9187,692.5575,1117.778Q691.8687,1118.0017,690.69073,1120.2089Q682.81647,1136.85,678.39355,1144.1532Q671.42944,1155.4116,669.73987,1156.2137Q666.28503,1156.7578,659.77814,1142.9109Q658.805,1140.9103,658.22455,1136.7932L657.1115,1124.2651Q655.72107,1119.6085,653.92175,1118.5255Q651.60486,1116.9268,649.01575,1120.9684Q647.476,1122.931,645.4736,1126.4048Q639.4175,1139.3862,635.23254,1145.1558Q633.66046,1147.881,626.774,1154.2511Q624.59753,1150.045,624.8679,1127.6888Q624.7752,1127.3894,624.2991,1127.3625Q621.09,1127.6271,620.02637,1127.3224Q618.676,1127.0032,617.69666,1126.0555Q616.6654,1125.2731,618.74664,1125.39Q623.75354,1126.0492,624.28204,1126.836L624.31024,1126.613Q623.86237,1124.5951,620.8306,1121.7676Q618.3614,1120.2124,617.2697,1121.461Q614.569,1124.2058,613.495,1128.3595Q612.75916,1132.6891,613.50507,1140.6273Q614.8411,1159.0107,621.1892,1163.6061Q626.09283,1167.6246,631.5391,1163.243Q642.9852,1152.9653,649.5632,1138.7609Q650.2837,1146.6395,658.74133,1158.7825Q662.9101,1164.7347,669.4526,1164.8804Q674.76385,1165.0132,679.484,1158.4113Q686.826,1148.5894,695.75,1129.7837Q697.86487,1134.259,699.09863,1137.7534Q706.2088,1162.0555,707.2517,1162.715Q709.44403,1164.7036,714.5936,1161.7908Q717.8012,1159.3091,718.73816,1157.05Q729.23645,1130.8073,736.3838,1120.8423Q736.05286,1125.2501,749.147,1157.1138Q752.40533,1162.4569,757.74036,1159.6399Q755.4172,1153.1414,753.5401,1151.1609Q753.67163,1150.9072,754.6916,1151.0654L757.08813,1151.8075Q757.47424,1151.7478,756.7834,1149.3795Q753.7688,1139.9215,749.44507,1130.3097Q746.3414,1123.3632,742.8003,1118.1088Q739.2592,1112.8545,736.0364,1112.5804"/>
</g>
<g style="fill:rgb(153,153,153); fill-opacity:1.0; stroke-linejoin: miter">
<path d="M790.70465,1128.3861L790.9303,1128.3868Q794.19037,1128.2556,795.35126,1129.674Q797.357,1131.7712,798.4574,1135.7349Q800.3105,1142.4465,800.96594,1148.2925Q801.27765,1150.847,801.46014,1154.2416L801.28375,1157.664Q800.0634,1157.5409,800.3265,1158.3712Q800.8635,1162.4719,802.19403,1166.4507L799.71387,1163.936Q799.20184,1163.2903,798.9417,1162.6483Q798.30493,1160.8889,798.61194,1158.9939L796.1697,1159.9712Q793.83105,1160.3802,791.11414,1160.3911Q781.53326,1160.5509,777.34985,1159.4062Q771.4764,1157.7843,765.33484,1154.4309Q762.38086,1152.709,761.794,1152.0536Q760.8948,1151.1031,760.5028,1149.7548Q759.98346,1147.9635,760.4188,1147.6781Q761.2603,1145.7341,763.5421,1142.9417Q768.3524,1137.3923,774.2115,1133.1655Q781.38934,1128.394,790.70465,1128.3861 M804.0048,1088.0582L803.46606,1088.0631Q800.5085,1088.1647,799.9734,1088.5365Q799.77856,1088.2513,799.5543,1089.9337Q799.40393,1091.6753,800.02454,1091.6088Q799.5223,1092.0537,799.4037,1094.8711Q799.21747,1099.3853,799.3359,1105.2601Q799.5661,1115.0312,800.0586,1122.3861Q796.7463,1119.2872,787.9488,1119.734Q779.20233,1120.3391,771.91187,1124.1063Q765.0994,1128.0306,757.0946,1136.5759Q752.3155,1141.7281,751.1785,1147.3309Q750.4214,1151.7058,753.38214,1156.7979Q754.91705,1159.7245,761.4129,1163.7346Q768.94183,1168.1945,775.5133,1170.1969Q782.06995,1172.0052,791.5079,1171.9779Q797.2452,1172.011,801.15826,1170.0156Q805.0541,1167.4813,805.07,1166.7584Q805.61505,1165.2177,804.8446,1162.876Q806.6636,1162.9443,807.69385,1162.6558Q809.11224,1162.2358,809.7106,1161.252L810.3278,1161.3416L810.8854,1145.2303Q810.28015,1118.0995,810.3905,1090.4319Q810.4559,1089.0017,809.5778,1088.7476Q808.1996,1088.1335,804.0048,1088.0582"/>
</g>
<g style="fill:rgb(153,153,153); fill-opacity:1.0; stroke-linejoin: miter">
<path d="M868.4113,1107.6403L868.4663,1107.6774Q869.7052,1108.5569,870.2221,1109.1556Q870.5806,1109.027,870.63446,1109.0753Q870.642,1109.094,870.6151,1109.12Q870.5831,1109.1488,870.48804,1109.2114Q870.4655,1109.228,870.4594,1109.2411L870.45996,1109.2527Q870.4659,1109.2631,870.5033,1109.2671Q870.6825,1109.267,870.6781,1109.2771Q870.6032,1109.3014,870.35425,1109.3151Q870.2941,1109.2383,870.22424,1109.1578Q870.1551,1109.1747,869.8684,1109.3Q869.81616,1109.2904,869.73566,1109.2667L869.3173,1109.1268Q869.23645,1109.1019,869.2061,1109.0999Q869.18567,1109.0934,869.1478,1109.068Q868.90784,1108.88,868.80347,1108.6515Q868.6853,1108.4297,868.53174,1108.035L868.4419,1107.774L868.40265,1107.6403L868.4113,1107.6403 M870.6241,1098.0736L870.52356,1098.0741Q868.25616,1098.1414,865.8945,1099.3414Q864.7798,1099.9304,863.6204,1101.0712Q863.1052,1101.5869,862.82166,1102.0077Q862.69446,1102.0503,862.7436,1102.4518L863.01874,1102.9553Q863.4289,1103.5549,864.1681,1104.3762L868.61005,1109.0315Q869.07,1109.546,869.01483,1109.6343Q869.27014,1109.5713,869.86584,1109.3011Q870.0608,1109.3285,870.35455,1109.3154Q871.15753,1110.4456,870.86835,1111.5061L870.7488,1111.5377Q870.28845,1112.3705,869.9664,1112.5895Q867.06616,1108.8057,864.04004,1105.4194Q861.4509,1107.4193,860.9046,1110.837Q860.53973,1114.0752,862.8616,1116.1345Q865.02014,1118.2043,868.09735,1118.1779Q871.799,1118.1929,875.66156,1115.109Q879.11176,1112.0497,879.6747,1108.1095Q880.22906,1104.4221,877.5234,1101.1815Q874.45465,1098.0485,870.6241,1098.0736"/>
</g>
<g style="fill:rgb(153,153,153); fill-opacity:1.0; stroke-linejoin: miter">
<path d="M869.03436,1148.872L869.03436,1148.8721Q869.1619,1149.033,869.2553,1149.224Q869.3672,1149.4432,869.43414,1149.6528Q869.5231,1149.614,869.5423,1149.6068Q869.55963,1149.5989,869.5676,1149.6049Q869.56635,1149.6222,869.4525,1149.7104Q869.444,1149.683,869.43524,1149.656L869.4265,1149.6561Q869.1436,1149.7814,868.9042,1149.9061Q868.8038,1149.8606,868.71045,1149.7997L868.7018,1149.7997Q868.84717,1149.4011,869.02563,1148.872L869.03436,1148.872 M867.83014,1150.5104L867.83014,1150.5104Q867.8603,1150.5137,867.8932,1150.5194L867.9266,1150.5255Q867.9607,1150.5322,867.9969,1150.5409Q868.08594,1150.5612,868.2694,1150.6163L868.26074,1150.6165Q868.2163,1150.6187,868.17535,1150.62Q868.12823,1150.6213,868.11005,1150.6212Q868.0339,1150.6213,867.9951,1150.6178Q867.9727,1150.616,867.95404,1150.6132Q867.9001,1150.6051,867.85645,1150.5973Q867.76953,1150.5818,867.7204,1150.5684L867.71173,1150.5684Q867.766,1150.5403,867.8215,1150.5104L867.83014,1150.5104 M869.45416,1149.7158L869.47363,1149.7817Q869.5948,1150.2289,869.61365,1150.6125Q869.44885,1150.6705,869.3699,1150.6887Q869.278,1150.7101,869.21936,1150.7097Q869.16766,1150.7092,869.1503,1150.6981Q869.1413,1150.6923,869.144,1150.6827L869.1506,1150.6721Q869.1905,1150.6384,869.22107,1150.6254L869.26465,1150.6044L869.421,1150.5374Q869.44073,1150.5248,869.41547,1150.5212Q869.3594,1150.5159,869.2097,1150.53Q868.5286,1150.6002,868.3576,1150.6106Q868.3842,1150.5858,868.47675,1150.3778Q868.50653,1150.3123,868.59863,1150.0757L868.58997,1150.0757Q868.7569,1149.983,868.9001,1149.9083L868.90875,1149.9083Q869.00635,1149.9534,869.08954,1149.9824Q869.1131,1149.9921,869.20404,1150.0175Q869.34283,1150.0533,869.39777,1150.0297Q869.40826,1150.0242,869.4085,1150.0177Q869.4131,1150.0148,869.3926,1149.997Q869.384,1149.9873,869.25446,1149.9291Q869.2303,1149.9164,869.23376,1149.8995Q869.2391,1149.8772,869.30286,1149.8254L869.4455,1149.7158L869.45416,1149.7158 M869.6094,1151.2109L869.6047,1151.2743Q869.59973,1151.3363,869.594,1151.3923L869.5882,1151.4465Q869.5823,1151.499,869.5763,1151.5437Q869.55743,1151.6802,869.5468,1151.7253L869.5422,1151.7255L869.5442,1151.6985L869.54443,1151.676L869.5432,1151.6575L869.5408,1151.6421Q869.53766,1151.6283,869.53314,1151.6183Q869.531,1151.6129,869.5189,1151.5905Q869.5142,1151.5813,869.51056,1151.5696L869.5075,1151.5565L869.5058,1151.5419L869.5056,1151.5247L869.507,1151.5048Q869.51306,1151.4413,869.5519,1151.3318Q869.56506,1151.2953,869.58234,1151.2538L869.6007,1151.2109L869.6094,1151.2109 M869.71497,1138.7216L869.6267,1138.7219Q865.23987,1138.7498,862.45026,1141.569Q861.2821,1142.7842,860.97095,1143.394Q860.9086,1143.5319,861.4177,1144.1721Q858.8412,1146.8718,858.4137,1150.0419Q857.8966,1153.4788,860.5699,1156.5626Q863.1757,1159.2039,866.9405,1159.1832Q871.0044,1159.0494,874.1681,1156.3491Q878.2483,1152.7572,878.78455,1148.9352Q879.31134,1144.6809,876.541,1141.5736Q874.1633,1138.8827,869.71497,1138.7216"/>
</g>
<g style="fill:rgb(153,153,153); fill-opacity:1.0; stroke-linejoin: miter">
<path d="M890.19666,1178.1587L890.19574,1178.1617Q890.1949,1178.1648,890.1941,1178.1672Q890.1933,1178.1697,890.19257,1178.1718L890.19183,1178.1736Q890.18976,1178.179,890.18823,1178.1798Q890.1876,1178.1799,890.187,1178.1799L890.1857,1178.179L890.18475,1178.1779L890.18396,1178.1765L890.1834,1178.175L890.1831,1178.1735L890.18304,1178.1718L890.1832,1178.1699L890.18365,1178.168L890.1843,1178.1658L890.18524,1178.1636L890.18634,1178.1613L890.18774,1178.1587L890.19666,1178.1587 M924.50037,1092.645L923.6448,1092.8137Q923.1331,1092.7195,921.6985,1094.8674L919.2829,1100.582Q918.98694,1101.2047,918.3489,1101.2018Q918.66956,1101.6857,928.5759,1106.2668Q930.84064,1107.4396,932.9884,1108.8042Q937.9906,1111.9113,942.2978,1116.4669Q948.40533,1122.8683,945.4174,1131.7913Q940.09607,1146.9642,927.7715,1154.6049Q920.4373,1159.1013,913.4306,1161.5156Q910.37427,1162.5903,905.2007,1164.0859Q887.191,1168.3804,885.5988,1169.3992Q884.77716,1170.5482,885.62836,1173.3953Q887.02014,1177.988,888.0572,1178.7397Q888.8215,1179.3762,889.57385,1179.226Q891.5201,1179.0543,895.56946,1178.2944Q920.50116,1172.7249,935.0223,1161.2537Q940.81305,1156.8914,945.4035,1150.3544Q951.9125,1141.0864,954.58307,1133.8485Q958.68445,1121.2294,951.2551,1110.8737Q939.0146,1095.8125,924.50037,1092.645"/>
</g>
</g>
</svg>