<?xml version="1.0" encoding="utf-8"?>
<svg xmlns="http://www.w3.org/2000/svg" xmlns:xlink="http://www.w3.org/1999/xlink" version= "1.1" width="615px" height="615px" viewBox="760 1136 615 615">
<g id="layer1" opacity="0.0">
<g style="fill:rgb(0,0,0); fill-opacity:1.0; stroke-linejoin: miter">
<path d="M1607.7983,1528.3124L1607.0651,1530.215Q1595.5317,1614.955,1582.1084,1678.0671Q1563.7458,1747.3745,1537.4728,1795.6532Q1501.0188,1875.1094,1391.3342,1968.8322Q1278.4033,2050.2412,1181.171,2070.9683Q1043.4404,2103.6775,915.094,2072.3147Q751.1505,2027.79,660.92664,1935.8843Q545.10284,1818.7195,513.9918,1710.9451Q470.2141,1605.0295,487.62354,1441.5986Q508.08963,1299.5757,600.28784,1177.988Q734.33563,1021.0531,894.0835,980.9551Q967.3347,959.7496,1056.4006,960.943Q1127.6904,964.54364,1136.9069,968.2456Q1205.2124,980.26025,1242.2048,996.6176Q1408.1329,1063.5594,1494.8337,1184.9926Q1535.5869,1238.8628,1561.5591,1306.3462Q1583.9058,1352.5046,1605.2917,1500.1934Q1608.5668,1519.7179,1636.1815,1551.4275L1636.1815,1496.9452Q1661.5133,1525.3422,1663.0557,1508.2712Q1667.0723,1467.011,1662.8065,1433.6499Q1652.3699,1346.8462,1585.1996,1222.9099Q1496.2239,1071.8322,1353.6616,990.41486Q1219.0201,907.3406,1022.67004,909.2995Q957.7396,912.9332,942.1282,917.46704Q878.6228,928.60614,829.79224,948.0183Q726.59106,990.5501,683.271,1027.1807Q541.1592,1132.3533,475.97565,1291.6132Q446.90836,1364.3013,438.30554,1428.6085Q427.80347,1521.3546,431.13773,1541.8905Q437.49695,1696.5479,503.99655,1815.4565Q638.66626,2055.7031,902.0145,2122.6743Q1038.6918,2158.2168,1197.4105,2121.0579Q1338.2086,2082.5366,1435.3582,2001.4865Q1484.7466,1964.6442,1542.963,1889.083Q1582.2965,1835.2568,1607.7208,1783.237Q1619.0829,1763.3646,1639.8704,1705.8861Q1673.6532,1595.6201,1664.9965,1552.2795Q1666.9679,1548.7894,1655.4791,1540.8567L1607.7983,1528.3124"/>
</g>
<g style="fill:rgb(0,0,0); fill-opacity:1.0; stroke-linejoin: miter">
<path d="M507.257,1329.8788L511.56192,1339.7917Q516.7369,1352.9427,565.33936,1435.2062Q726.6903,1699.3584,722.23926,1694.534L873.21893,1961.8497Q901.8994,2009.984,919.841,2035.6914Q937.7826,2061.3992,945.89923,2068.5059Q954.09863,2074.093,954.3685,2070.0017Q959.9076,2065.4866,961.1731,2023.4592Q964.36694,2025.6112,966.0796,2021.5728Q968.0076,2017.6389,958.0399,1994.2427Q947.4928,1970.0034,916.08984,1915.9818Q900.6245,1887.7117,760.5546,1655.6782L634.96204,1434.7034Q607.988,1387.7057,598.7518,1375.7728L586.09064,1360.5762Q573.93427,1348.1307,563.6561,1343.3926Q553.378,1338.6544,544.83716,1338.3259L516.9193,1338.1641Q511.43073,1336.7628,507.257,1329.8788"/>
</g>
<g style="fill:rgb(0,0,0); fill-opacity:1.0; stroke-linejoin: miter">
<path d="M-1043.0304,524.3772L-1042.2295,524.37787L-1028.6086,537.99866L-1025.4794,540.0559L-1022.87036,539.70123L-1020.7343,537.36017L-1019.02386,533.45844L-1017.6918,528.4217Q-1016.5488,522.81744,-1015.97345,516.6456Q-1014.92114,503.9828,-1014.98816,497.13705L-987.74713,524.378L-986.94617,524.3773L-1043.0304,524.3772"/>
</g>
<g style="fill:rgb(0,0,0); fill-opacity:1.0; stroke-linejoin: miter">
<path d="M754.8071,1728.5483L755.47046,1728.4497Q767.79193,1725.373,789.2122,1715.1224Q885.6194,1664.0757,904.338,1657.261Q926.2814,1647.1277,962.55884,1637.7344Q1025.034,1622.8627,1074.0342,1646.7959Q1122.5065,1670.2587,1172.561,1739.8547Q1208.13,1791.616,1230.6017,1833.3401L1319.301,2006.1414Q1325.1038,2016.9419,1345.1829,2045.315Q1345.9973,2046.4677,1349.9658,2045.5283Q1383.1731,2033.826,1395.0022,2022.3651Q1385.8767,1981.8605,1334.2375,1891.0131Q1200.5048,1653.1581,1097.2239,1599.5367Q1055.3077,1576.1208,998.8385,1575.4943Q935.26874,1576.0615,865.5199,1603.9872Q778.9586,1638.1036,732.4024,1675.3616Q730.43036,1674.2214,734.02527,1685.3367L754.8071,1728.5483"/>
</g>
<g style="fill:rgb(0,0,0); fill-opacity:1.0; stroke-linejoin: miter">
<path d="M1294.1746,983.3888L1293.0452,983.90497Q1205.7406,1048.7332,1086.0356,1198.8328Q1026.4534,1280.4004,1046.1073,1316.8046Q1064.0372,1351.3583,1104.8232,1357.1853Q1120.605,1364.9574,1282.4064,1364.8201Q1328.3768,1367.8643,1331.7258,1373.9802Q1332.447,1373.9182,1331.3473,1371.93Q1328.9207,1367.4717,1328.3287,1367.9124Q1330.5532,1364.9098,1326.0116,1376.4768Q1320.3369,1387.8997,1308.1819,1404.2922L1234.432,1497.5659Q1215.2927,1523.679,1203.9766,1550.4619Q1181.351,1611.572,1229.4412,1648.4788Q1259.7241,1676.4026,1377.3154,1700.5564Q1542.7693,1730.6357,1604.9519,1722.0096Q1613.1627,1708.5623,1611.193,1667.5586Q1565.1213,1657.1519,1556.2401,1656.7854Q1395.9106,1644.4844,1348.8398,1635.0746Q1266.6444,1619.0051,1251.5138,1596.6146Q1241.0911,1587.3457,1264.3259,1546.456Q1280.54,1519.3835,1349.7932,1434.1871Q1363.917,1416.0532,1373.5042,1394.9698Q1388.1008,1355.0916,1362.7651,1333.803Q1342.4552,1318.766,1309.2124,1315.5145L1274.3525,1313.109L1153.567,1310.5345Q1131.8501,1309.408,1113.6595,1305.3448Q1094.9934,1300.0623,1095.229,1298.3887Q1097.2407,1300.9656,1094.1306,1295.1116Q1095.0337,1298.4761,1095.4749,1289.808Q1099.0735,1277.7347,1110.4923,1259.9661Q1128.287,1233.9451,1146.2604,1214.5171Q1182.5352,1172.9448,1299.7498,1063.6351Q1317.7225,1045.3608,1325.635,1033.685L1326.5083,1030.6844Q1326.3657,1027.0966,1323.4486,1022.04407L1294.1746,983.3888"/>
</g>
<g style="fill:rgb(0,0,0); fill-opacity:1.0; stroke-linejoin: miter">
</g>
<g style="fill:rgb(255,123,123); fill-opacity:1.0; stroke-linejoin: miter">
<path d="M1324.2131,1034.874C1323.9393,1034.874,1323.6823,1035.006,1323.5227,1035.2286Q1315.5388,1046.37,1299.1444,1063.0397L1299.1432,1063.0406Q1181.9196,1172.3582,1145.6205,1213.9584L1145.62,1213.9594Q1127.6129,1233.4261,1109.7911,1259.4867L1109.7777,1259.507Q1098.294,1277.3767,1094.6609,1289.5653C1094.6415,1289.6302,1094.63,1289.6971,1094.6266,1289.7648Q1094.3821,1294.573,1094.0514,1295.4263L1094.0404,1295.4272C1093.8546,1295.5967,1093.7471,1295.8473,1093.7672,1296.116C1093.781,1296.2993,1093.8522,1296.4655,1093.9625,1296.5973L1093.9517,1296.5983Q1094.3281,1297.323,1094.5896,1297.8539L1094.5787,1297.8549C1094.4705,1297.9819,1094.399,1298.143,1094.382,1298.3213Q1094.3397,1298.7638,1094.6232,1299.177L1094.6233,1299.1771Q1096.0397,1301.2408,1113.4281,1306.162L1113.4742,1306.1737Q1131.7346,1310.2526,1153.5228,1311.3827L1153.5487,1311.3837L1274.3142,1313.9578L1309.1539,1316.362L1309.151,1316.363Q1342.1455,1319.5934,1362.2595,1334.4856L1362.257,1334.4866Q1387.0874,1355.3898,1372.7064,1394.6779L1372.7037,1394.6788Q1363.1658,1415.6356,1349.1229,1433.665L1349.1227,1433.666Q1279.8414,1518.8965,1263.597,1546.0198L1263.5872,1546.0365Q1240.0637,1587.4337,1250.9016,1597.2068L1250.8892,1597.2078Q1266.3496,1619.813,1348.6769,1635.9081L1348.677,1635.909Q1395.8007,1645.328,1556.1753,1657.6321L1556.2052,1657.6338Q1562.1641,1657.8796,1585.2681,1662.743C1585.326,1662.7552,1585.3848,1662.7612,1585.443,1662.7612C1585.6361,1662.7612,1585.8254,1662.6953,1585.9781,1662.5714C1586.1333,1662.4456,1586.2377,1662.2704,1586.276,1662.0778L1586.2759,1662.0787Q1597.8026,1604.5406,1607.8845,1530.4923L1607.8685,1530.4933L1608.3174,1529.3273L1620.2651,1532.4716C1620.3364,1532.4904,1620.409,1532.4995,1620.4812,1532.4995C1620.6669,1532.4995,1620.8496,1532.4386,1620.9999,1532.3229C1621.2085,1532.1621,1621.3307,1531.9136,1621.3307,1531.6501L1621.3307,1531.6492C1621.3307,1531.4739,1621.2765,1531.3029,1621.1754,1531.1595Q1608.2904,1512.8942,1606.1326,1500.0717L1606.1323,1500.0726Q1584.7426,1352.3568,1562.3552,1306.0411L1562.3519,1306.0421Q1536.3413,1238.4578,1495.5258,1184.4991L1495.5254,1184.5001Q1431.5833,1094.9419,1324.6418,1034.9825C1324.5149,1034.9114,1324.372,1034.874,1324.2264,1034.874 Z"/>
</g>
<g style="fill:rgb(255,123,123); fill-opacity:1.0; stroke-linejoin: miter">
<path d="M1046.9543,960.0301Q963.3113,960.0301,893.84735,980.1393L893.8449,980.14026Q733.8527,1020.31067,599.6421,1177.4364L599.61115,1177.4749Q542.3425,1252.9983,512.7086,1336.4043C512.6162,1336.6643,512.6559,1336.9531,512.81506,1337.1786C512.90045,1337.2996,513.01447,1337.3942,513.1444,1337.4559L513.1393,1337.4569Q514.85095,1338.5126,516.7093,1338.987C516.7763,1339.0042,516.8452,1339.0131,516.9144,1339.0134L544.8246,1339.1753L544.81915,1339.1763Q553.18494,1339.5007,563.3005,1344.164Q573.4362,1348.8364,585.483,1361.1697L585.4795,1361.1707L598.0991,1376.3165L598.09845,1376.3175Q607.30707,1388.2261,634.2253,1435.1262L634.22534,1435.1272L759.7045,1655.9023C759.85815,1656.1726,760.14294,1656.3322,760.4429,1656.3322C760.51495,1656.3322,760.5878,1656.3229,760.66003,1656.3038C760.7467,1656.2809,760.82733,1656.2451,760.89996,1656.1987L760.89825,1656.1997Q802.7052,1629.6573,865.83154,1604.7773L865.8358,1604.7758Q935.4284,1576.9127,998.8308,1576.344L998.8408,1576.345Q1055.0889,1576.9707,1096.8094,1600.2783L1096.8324,1600.2906Q1199.8888,1653.7958,1333.4974,1891.4292L1333.4994,1891.4326Q1362.6421,1942.703,1378.2289,1977.9158C1378.3671,1978.2279,1378.6748,1978.4215,1379.0052,1978.4215C1379.0635,1978.4215,1379.1224,1978.4155,1379.1813,1978.4031C1379.296,1978.3788,1379.4012,1978.332,1379.4928,1978.268L1379.4912,1978.2689Q1385.6349,1973.9874,1391.8307,1969.521L1391.8857,1969.4778Q1501.6766,1875.6643,1538.2212,1796.0592L1538.2191,1796.0602Q1555.3087,1764.6564,1569.0533,1724.3882L1569.0377,1724.3892C1569.1334,1724.2465,1569.1873,1724.0746,1569.1825,1723.8911C1569.1705,1723.434,1568.7988,1723.0684,1568.3416,1723.064Q1502.3662,1722.4261,1377.4874,1699.7244L1377.4862,1699.7253Q1260.1265,1675.6182,1230.0166,1647.8541L1229.9579,1647.8047Q1182.3794,1611.29,1204.7595,1550.7922L1204.7585,1550.7932Q1216.0309,1524.1136,1235.0986,1498.0925L1235.098,1498.0935L1308.8479,1404.8192L1308.8639,1404.7982Q1321.064,1388.3444,1326.7721,1376.8547L1326.8021,1376.7872Q1327.9641,1373.8281,1328.687,1371.8134L1328.6737,1371.8143C1328.7391,1371.7148,1328.7847,1371.6014,1328.8044,1371.4788C1328.867,1371.0901,1328.654,1370.7095,1328.2903,1370.5591Q1318.0603,1366.3301,1282.4626,1363.9725L1282.4058,1363.9707Q1279.5941,1363.9731,1276.8273,1363.9731Q1120.5281,1363.9731,1105.1984,1356.4231C1105.118,1356.3835,1105.032,1356.3569,1104.9432,1356.3442Q1064.5906,1350.5789,1046.8615,1316.4136L1046.855,1316.4012Q1027.4586,1280.4745,1086.7007,1199.3625L1086.6997,1199.3635Q1187.5868,1072.8585,1265.4247,1006.9759L1265.412,1006.97687C1265.6306,1006.85345,1265.7902,1006.6369,1265.8344,1006.37756C1265.8998,1005.99384,1265.696,1005.6147,1265.3398,1005.4576Q1254.1377,1000.51654,1242.5497,995.84094L1242.5483,995.8419Q1205.4902,979.4544,1137.1599,967.42773L1137.1484,967.4287Q1127.5918,963.6881,1056.4436,960.0947L1056.4121,960.09375Q1051.6619,960.0301,1046.9543,960.0301 Z"/>
</g>
<g style="fill:rgb(255,123,123); fill-opacity:1.0; stroke-linejoin: miter">
<path d="M512.0251,1340.0698C511.66306,1340.0698,511.34082,1340.2992,511.2224,1340.6414Q494.24365,1389.7039,486.7829,1441.4775L486.779,1441.5087Q469.34644,1605.1544,513.20685,1711.2695L513.2015,1711.2705Q544.39465,1819.211,660.3225,1936.4812L660.3226,1936.4822Q750.7075,2028.5499,914.87146,2073.1343L914.89246,2073.14Q977.816,2088.5156,1042.9917,2088.5156Q1110.9492,2088.5156,1181.3486,2071.799L1181.348,2071.8Q1248.779,2057.4253,1323.7155,2013.9413L1323.7023,2013.9423C1323.8998,2013.8682,1324.066,2013.723,1324.1642,2013.5303C1324.2991,2013.2655,1324.2858,2012.9495,1324.129,2012.6969Q1321.5891,2008.6034,1320.0569,2005.7534L1320.0568,2005.7544L1231.3574,1832.9523L1231.3496,1832.9374Q1208.8557,1791.1724,1173.2611,1739.3738L1173.2488,1739.3564Q1122.4375,1669.2527,1075.676,1646.7094Q1043.8763,1631.1245,1007.8346,1631.1245Q985.87823,1631.1245,962.35596,1636.9095L962.34595,1636.9121Q925.99506,1646.3245,903.98193,1656.4899L903.9735,1656.4908Q885.6246,1663.2003,794.26697,1711.4884C793.9219,1711.6708,793.7455,1712.065,793.8395,1712.4438C793.87317,1712.5796,793.93835,1712.7008,794.0262,1712.8005L794.01825,1712.8015Q901.89105,1891.7965,915.34454,1916.3893L915.3554,1916.4086Q946.73346,1970.3872,957.261,1994.5813Q967.07367,2017.6146,965.3169,2021.1989L965.2976,2021.241Q964.39984,2023.3579,963.2146,2023.3579Q962.5429,2023.3579,961.6477,2022.7548C961.50494,2022.6586,961.33936,2022.6099,961.1731,2022.6099C961.0405,2022.6099,960.9076,2022.6409,960.78546,2022.7035C960.5102,2022.8447,960.33344,2023.1245,960.3241,2023.4337Q959.0702,2065.0732,953.8318,2069.3433C953.64905,2069.4922,953.53644,2069.7104,953.52094,2069.9458Q953.45917,2070.8818,952.7233,2070.8818Q950.9117,2070.8818,946.46277,2067.862L946.45325,2067.863Q938.41376,2060.8193,920.5375,2035.2053Q902.6168,2009.5277,873.95874,1961.4319L873.95844,1961.4329L723.21265,1694.5315L723.20544,1694.5325Q723.1953,1694.3973,723.14557,1694.2489Q721.42755,1689.1132,566.07086,1434.7742L566.0707,1434.7751Q519.3856,1355.7563,512.8096,1340.5814C512.6749,1340.2708,512.3687,1340.0698,512.0302,1340.0698 Z"/>
</g>
</g>
<g id="layer2">
<g style="fill:rgb(0,0,0); fill-opacity:1.0; stroke-linejoin: miter">
<path d="M774.8936,1420.7579L779.09283,1422.3109Q795.84686,1429.7838,829.0705,1449.5173L916.50116,1503.2236L1023.3164,1565.32Q1042.6792,1576.8774,1062.105,1590.5208Q1071.2408,1597.2395,1071.0161,1598.1426L1069.2921,1598.6309Q1068.3011,1599.8655,1067.6396,1603.2562Q1065.824,1612.6355,1065.6387,1634.0824L1063.5306,1633.3411Q1038.016,1622.659,995.1421,1598.4448Q977.1653,1588.6017,899.01733,1540.6019L817.88837,1493.5045Q795.7263,1480.0076,793.5305,1478.2819L785.3697,1472.1145Q778.6548,1465.9186,776.1632,1459.8915Q773.6717,1453.8644,773.843,1448.2896L777.68896,1425.7223Q777.6906,1422.518,774.8936,1420.7579"/>
</g>
<g style="fill:rgb(0,0,0); fill-opacity:1.0; stroke-linejoin: miter">
<path d="M1356.9438,1420.7579L1352.7446,1422.3109Q1335.9906,1429.7838,1302.767,1449.5173L1215.3362,1503.2235L1108.521,1565.3198Q1089.1582,1576.8773,1069.7324,1590.5205Q1060.5966,1597.2393,1060.8213,1598.1423L1062.5453,1598.6306Q1063.5361,1599.8652,1064.1976,1603.256Q1066.0133,1612.6353,1066.1986,1634.0822L1068.3066,1633.3408Q1093.8213,1622.6589,1136.6953,1598.4447Q1154.6721,1588.6016,1232.8201,1540.6018L1313.949,1493.5045Q1336.1111,1480.0076,1338.3069,1478.2819L1346.4678,1472.1145Q1353.1826,1465.9186,1355.6742,1459.8915Q1358.1658,1453.8644,1357.9944,1448.2896L1354.1484,1425.7223Q1354.1469,1422.518,1356.9438,1420.7579"/>
</g>
<g style="fill:rgb(0,0,0); fill-opacity:1.0; stroke-linejoin: miter">
<path d="M399.38928,2668.8442L399.93604,2668.8435L409.23248,2659.5469L411.36823,2658.1426L413.1489,2658.3848L414.60684,2659.9824L415.77426,2662.6455L416.6835,2666.0833Q417.46353,2669.9082,417.8563,2674.1206Q418.5745,2682.7632,418.52878,2687.4355L437.12137,2668.8433L437.66806,2668.844L399.38928,2668.8442"/>
</g>
<g style="fill:rgb(0,0,0); fill-opacity:1.0; stroke-linejoin: miter">
<path d="M2916.038,2668.8462L2915.4912,2668.8455L2906.1948,2659.5488L2904.059,2658.1445L2902.2786,2658.3867L2900.8206,2659.9844L2899.653,2662.6475L2898.744,2666.0852Q2897.9639,2669.9102,2897.571,2674.1226Q2896.8528,2682.7651,2896.8984,2687.4375L2878.306,2668.8452L2877.7593,2668.846L2916.038,2668.8462"/>
</g>
<g style="fill:rgb(0,0,0); fill-opacity:1.0; stroke-linejoin: miter">
<path d="M773.36163,1299.2716L777.56085,1300.8246Q788.86346,1305.3502,827.53845,1328.0309L914.9693,1381.7374L1026.0881,1446.428Q1043.3057,1456.9072,1060.5732,1469.0347Q1068.6613,1474.8707,1069.4845,1476.6565L1067.7604,1477.1448Q1066.8795,1478.2422,1066.2588,1481.0431Q1064.4489,1488.162,1064.1068,1512.5962L1061.9987,1511.8549Q1031.147,1498.541,988.87244,1474.3002Q966.95026,1461.7822,897.4855,1419.1157L816.35645,1372.0183L791.9985,1356.7955Q776.83374,1346.7605,773.65533,1335.7487Q772.3862,1332.4198,772.311,1326.8031L776.157,1304.236Q775.8307,1300.4889,773.36163,1299.2716"/>
</g>
<g style="fill:rgb(0,0,0); fill-opacity:1.0; stroke-linejoin: miter">
<path d="M1355.4119,1299.2716L1351.2126,1300.8246Q1339.9102,1305.3502,1301.2351,1328.0309L1213.8042,1381.7373L1102.6853,1446.4279Q1085.4678,1456.9071,1068.2002,1469.0344Q1060.1122,1474.8705,1059.289,1476.6562L1061.0131,1477.1445Q1061.8939,1478.242,1062.5146,1481.0428Q1064.3246,1488.1617,1064.6666,1512.596L1066.7748,1511.8546Q1097.6265,1498.5409,1139.901,1474.3Q1161.8232,1461.7821,1231.2881,1419.1156L1312.417,1372.0183L1336.7751,1356.7955Q1351.9398,1346.7605,1355.1182,1335.7487Q1356.3873,1332.4198,1356.4626,1326.8031L1352.6166,1304.236Q1352.9429,1300.4889,1355.4119,1299.2716"/>
</g>
</g>
</svg>