<?xml version="1.0" encoding="utf-8"?>
<svg xmlns="http://www.w3.org/2000/svg" xmlns:xlink="http://www.w3.org/1999/xlink" version= "1.1" width="200px" height="200px" viewBox="1028 440 200 200">
<g id="layer1">
<g style="fill:rgb(240,142,142); fill-opacity:1.0; stroke-linejoin: miter">
<path d="M1133.7175,487.31104L1133.1887,487.3118Q1127.3811,487.34668,1124.7384,487.57407Q1120.1584,488.0025,1115.0314,489.04724Q1090.6023,494.07687,1083.9734,496.99106Q1065.3005,503.79025,1051.7693,511.05478Q1044.2289,515.14417,1041.9396,517.30597Q1041.5319,517.5882,1041.1198,518.4894Q1041.3473,520.1744,1040.701,520.3838Q1055.6077,516.3717,1086.9359,511.37048Q1093.8398,510.34375,1102.3578,509.65842Q1101.7942,509.59335,1126.88,508.17996L1129.9996,507.71085Q1135.7955,506.49667,1137.2751,506.3309Q1141.4252,505.70294,1148.4833,505.06805Q1161.6141,503.82782,1169.0028,503.77194Q1183.5533,504.21286,1186.8674,504.16397Q1192.4518,504.21918,1200.0947,503.86768L1209.8551,504.6508Q1212.2992,504.7877,1213.725,504.69324Q1209.4415,501.59256,1201.0123,498.5944L1173.0349,491.19202Q1153.395,487.2059,1133.7175,487.31104"/>
</g>
<g style="fill:rgb(240,142,142); fill-opacity:1.0; stroke-linejoin: miter">
<path d="M1133.7175,582.3181L1133.1887,582.3174Q1127.3811,582.2825,1124.7384,582.05505Q1120.1584,581.62665,1115.0314,580.5819Q1090.6023,575.55225,1083.9734,572.63806Q1065.3005,565.83887,1051.7693,558.57434Q1044.2289,554.485,1041.9396,552.3232Q1041.5319,552.04095,1041.1198,551.1398Q1041.3473,549.4548,1040.701,549.24536Q1055.6077,553.25745,1086.9359,558.25867Q1093.8398,559.2854,1102.3578,559.9707Q1101.7942,560.03577,1126.88,561.4492L1129.9996,561.91833Q1135.7955,563.13245,1137.2751,563.2982Q1141.4252,563.9262,1148.4833,564.5611Q1161.6141,565.80133,1169.0028,565.8572Q1183.5533,565.41626,1186.8674,565.4652Q1192.4518,565.41,1200.0947,565.7615L1209.8551,564.9784Q1212.2992,564.84143,1213.725,564.9359Q1209.4415,568.0366,1201.0123,571.0348L1173.0349,578.43713Q1153.395,582.4232,1133.7175,582.3181"/>
</g>
<g style="fill:rgb(240,142,142); fill-opacity:1.0; stroke-linejoin: miter">
<path d="M1100.8759,468.32812L1100.7118,468.5996Q1093.5975,485.7336,1087.895,521.34045Q1086.5402,530.25073,1086.4906,544.5062Q1086.4742,558.4165,1088.0529,564.91754Q1096.7865,595.7032,1115.7993,623.14777Q1125.1805,636.7859,1128.937,639.3882Q1136.4504,644.4614,1140.1877,641.15845L1140.8127,639.9774Q1139.9547,641.61743,1138.9424,641.7964Q1135.7856,640.90283,1134.7964,640.0075Q1131.9807,637.8896,1129.7819,633.4899Q1122.8737,615.5094,1117.8159,600.23035Q1114.5288,589.7965,1110.8707,573.94806L1109.1376,565.8058L1107.9615,556.6399Q1106.0682,546.01263,1104.9973,538.27515Q1104.2267,532.8477,1103.4966,525.5813Q1103.3059,524.2472,1103.1334,517.7403L1102.3975,470.67548Q1102.4435,470.33475,1102.0319,469.61163Q1100.6411,468.6762,1100.8759,468.32812"/>
</g>
<g style="fill:rgb(240,142,142); fill-opacity:1.0; stroke-linejoin: miter">
<path d="M1100.8759,601.301L1100.7118,601.02954Q1093.5975,583.8955,1087.895,548.2887Q1086.5402,539.3784,1086.4906,525.1229Q1086.4742,511.21265,1088.0529,504.7116Q1096.7865,473.92596,1115.7993,446.48138Q1125.1805,432.84326,1128.937,430.24097Q1136.4504,425.16772,1140.1877,428.4707L1140.8127,429.65173Q1139.9547,428.01172,1138.9424,427.83276Q1135.7856,428.72632,1134.7964,429.62164Q1131.9807,431.73956,1129.7819,436.13922Q1122.8737,454.11975,1117.8159,469.3988Q1114.5288,479.83264,1110.8707,495.6811L1109.1376,503.82336L1107.9615,512.98926Q1106.0682,523.6165,1104.9973,531.354Q1104.2267,536.78143,1103.4966,544.04785Q1103.3059,545.38196,1103.1334,551.88885L1102.3975,598.9537Q1102.4435,599.29443,1102.0319,600.0175Q1100.6411,600.95294,1100.8759,601.301"/>
</g>
</g>
</svg>